<?xml version="1.0" standalone="no"?>
<!DOCTYPE svg PUBLIC "-//W3C//DTD SVG 20010904//EN"
 "http://www.w3.org/TR/2001/REC-SVG-20010904/DTD/svg10.dtd">
<svg version="1.0" xmlns="http://www.w3.org/2000/svg"
 width="1587.000000pt" height="1563.000000pt" viewBox="0 0 1587.000000 1563.000000"
 preserveAspectRatio="xMidYMid meet">

<g transform="translate(0.000000,1563.000000) scale(0.100000,-0.100000)"
fill="#000000" stroke="none">
<path d="M8213 14022 l-271 -2 -1 -98 c0 -53 0 -469 0 -924 -1 -545 -4 -828
-11 -828 -5 0 -10 12 -11 28 0 27 -1 27 -11 5 -6 -13 -15 -23 -20 -23 -11 0
-10 27 2 35 14 9 12 55 -2 55 -7 0 -5 5 5 11 26 15 21 28 -10 25 -27 -3 -28
-5 -26 -60 3 -52 1 -56 -22 -62 -14 -3 -23 -10 -20 -14 4 -7 -17 -20 -31 -20
-3 0 -16 12 -29 26 -22 24 -25 25 -26 8 -1 -10 -1 -24 0 -30 2 -13 -29 -28
-38 -19 -3 3 1 10 9 15 10 6 11 14 3 32 l-10 23 -16 -30 c-10 -21 -12 -36 -6
-48 8 -13 6 -15 -5 -11 -7 3 -16 1 -19 -4 -4 -5 51 -7 128 -4 95 3 148 0 180
-9 45 -13 46 -14 98 -124 116 -245 317 -645 367 -730 167 -282 243 -373 365
-430 82 -39 105 -47 288 -95 119 -32 137 -41 137 -76 0 -12 5 -26 10 -29 6 -4
10 7 10 24 0 35 15 41 25 11 9 -28 -19 -54 -50 -46 -16 4 -27 1 -33 -10 -6
-11 -17 -15 -31 -11 -17 4 -24 -1 -36 -29 -8 -19 -21 -34 -29 -34 -27 0 -28
-20 -1 -30 21 -8 23 -12 14 -23 -7 -7 -23 -14 -36 -15 -13 -1 -32 -10 -42 -19
-19 -18 -19 -19 3 -44 13 -15 42 -39 65 -54 22 -15 41 -32 41 -38 0 -5 -8 -3
-17 4 -16 13 -17 12 -5 -3 8 -10 20 -14 29 -11 11 4 14 2 9 -5 -5 -8 3 -14 23
-18 17 -4 31 -12 31 -19 0 -7 15 -22 33 -32 56 -34 268 -216 364 -314 397
-406 628 -885 672 -1394 6 -66 11 -130 11 -142 0 -19 7 -22 58 -28 267 -30
588 -174 727 -326 108 -117 163 -214 220 -387 35 -107 38 -112 50 -89 7 14 42
60 78 104 130 157 447 690 451 758 0 13 4 21 7 19 7 -4 29 64 29 87 0 24 -20
-13 -20 -38 0 -16 -4 -21 -16 -16 -11 4 -12 9 -5 16 6 6 11 18 11 27 0 9 -6 5
-13 -10 -7 -14 -21 -24 -30 -24 -10 1 -17 -5 -17 -15 -1 -11 -4 -9 -14 8 -11
19 -14 21 -19 7 -8 -21 -31 -20 -53 1 -13 13 -37 18 -103 19 -78 2 -108 12
-82 29 27 16 5 25 -62 25 -43 0 -78 5 -85 12 -7 7 -12 30 -12 53 0 56 -10 87
-26 81 -7 -3 -16 4 -19 14 -3 11 -18 28 -32 39 l-25 20 19 28 c25 36 188 369
244 498 51 117 114 233 174 322 24 34 46 68 49 75 3 9 17 0 39 -25 93 -102
208 -409 271 -727 114 -572 112 -999 -9 -1509 -41 -176 -141 -508 -198 -661
-48 -127 -104 -252 -83 -184 6 18 3 21 -18 19 -17 -2 -23 1 -19 11 3 7 -2 21
-11 29 -9 9 -16 23 -16 31 0 8 -10 14 -25 14 -18 0 -23 4 -19 15 4 8 1 15 -5
15 -6 0 -13 -10 -16 -23 -4 -15 -14 -23 -32 -25 -23 -2 -25 0 -19 29 6 29 5
30 -27 28 -34 -3 -76 8 -78 19 -5 45 -5 59 4 73 6 10 5 25 -6 46 -13 25 -15
50 -10 130 4 72 2 106 -7 123 -7 14 -14 38 -15 55 -4 54 -18 110 -32 123 -7 7
-13 24 -13 37 0 14 -8 29 -18 34 -9 5 -23 30 -31 56 -20 67 -28 42 -34 -110
-11 -262 -117 -520 -275 -667 -169 -158 -326 -187 -618 -113 -165 41 -186 41
-234 -3 -24 -22 -37 -50 -64 -147 -42 -146 -71 -226 -121 -325 -131 -262 -310
-494 -498 -646 -602 -485 -1449 -669 -2247 -490 -734 166 -1290 588 -1586
1205 -96 199 -148 355 -196 586 -29 137 -32 165 -32 335 1 161 4 201 27 310
33 157 67 262 118 363 48 95 78 135 139 181 185 141 394 136 780 -16 502 -199
931 -588 1119 -1016 115 -260 181 -602 181 -932 0 -104 38 -160 108 -160 48 0
52 13 52 154 0 258 35 529 96 739 147 511 449 902 958 1240 366 244 668 383
950 438 l68 13 -7 86 c-30 394 -158 735 -391 1046 -390 519 -982 870 -1604
949 -387 50 -845 -30 -1217 -211 -533 -260 -901 -646 -1144 -1204 -180 -411
-254 -840 -220 -1282 6 -80 8 -154 5 -162 -10 -25 -86 -65 -137 -72 -46 -7
-47 -6 -61 27 -54 129 -59 638 -10 903 9 43 13 81 10 84 -3 3 -6 -2 -6 -11 0
-10 -4 -17 -9 -17 -5 0 -13 -10 -17 -22 l-7 -23 -10 25 c-8 21 -11 22 -14 7
-6 -26 5 -50 19 -41 8 5 9 0 5 -17 -4 -13 -7 -28 -7 -34 0 -5 -5 -3 -10 5 -8
13 -10 13 -10 -2 0 -9 -5 -20 -12 -24 -8 -5 -9 5 -5 39 4 29 3 47 -3 47 -10 0
-14 -18 -12 -60 1 -14 -1 -20 -4 -13 -3 7 -14 2 -31 -13 -20 -19 -28 -21 -34
-12 -13 21 -38 -22 -39 -64 0 -36 -2 -38 -31 -38 -21 0 -30 -4 -26 -13 7 -17
-13 -43 -40 -51 -21 -7 -22 -5 -17 23 6 30 -7 43 -21 21 -3 -5 -12 -7 -20 -3
-12 4 -15 -4 -15 -36 l0 -41 -53 0 c-39 0 -60 -5 -76 -19 -19 -16 -26 -18 -42
-8 -10 6 -19 19 -19 28 0 12 -12 16 -52 18 -29 2 -64 3 -78 4 -19 2 -25 -3
-25 -18 0 -13 6 -20 18 -19 9 1 17 -2 17 -6 0 -11 -37 -23 -49 -16 -5 3 -11
-1 -15 -9 -4 -11 -21 -15 -61 -15 -30 0 -55 -4 -55 -10 0 -5 -8 -10 -17 -10
-15 0 -16 2 -3 10 17 11 13 15 -22 24 -21 5 -28 3 -28 -9 0 -8 4 -15 9 -15 5
0 7 -9 4 -21 -3 -11 -9 -16 -12 -10 -4 5 -23 11 -44 13 -20 1 -37 5 -37 9 0 4
-25 8 -55 8 -30 0 -55 -5 -55 -10 0 -5 -11 -9 -24 -9 -13 0 -29 -7 -36 -15
-15 -19 -46 -19 -57 -2 -24 41 -103 11 -103 -39 0 -14 -4 -33 -9 -42 -5 -9
-12 -66 -15 -127 -4 -60 -11 -114 -16 -119 -14 -14 -13 -56 1 -56 8 0 8 -4 1
-12 -10 -13 -14 -46 -27 -213 -5 -56 -12 -86 -24 -100 -28 -31 -43 -65 -36
-82 5 -14 7 -14 20 3 15 19 15 18 9 -1 -4 -11 -13 -27 -19 -35 -7 -8 -15 -31
-19 -51 -7 -41 -26 -62 -48 -54 -8 3 -21 -1 -28 -10 -7 -8 -23 -15 -36 -15
-20 0 -24 -5 -24 -30 0 -25 -4 -30 -25 -30 -19 0 -25 5 -25 22 0 17 -3 19 -12
10 -7 -7 -37 -12 -68 -12 -48 0 -57 3 -65 23 -6 13 -21 23 -36 25 -24 3 -27 8
-32 50 -3 31 0 53 9 66 16 23 19 56 4 56 -5 0 -7 6 -4 13 3 8 -2 19 -10 26 -7
6 -12 21 -9 31 4 14 0 20 -11 20 -11 0 -16 9 -17 33 l0 32 -17 -42 c-32 -78
-76 -128 -138 -159 l-59 -29 -205 0 c-229 0 -259 6 -321 62 -73 66 -106 153
-90 241 5 23 7 42 5 42 -7 0 -34 -73 -34 -91 0 -9 -7 -24 -15 -33 -8 -8 -15
-22 -15 -30 0 -9 -4 -16 -10 -16 -5 0 -10 -6 -10 -14 0 -8 -6 -16 -12 -18 -10
-4 -10 -10 -1 -31 8 -16 9 -27 3 -27 -6 0 -10 -18 -10 -41 0 -56 -16 -82 -45
-75 -19 5 -24 2 -27 -16 -2 -16 -13 -25 -38 -32 -58 -15 -230 -19 -289 -6 -52
12 -53 13 -47 41 l6 30 -60 -4 c-33 -3 -61 -2 -61 2 -1 3 -3 17 -5 31 -2 14
-6 698 -10 1520 -8 1821 -3 2027 67 2465 37 236 110 535 169 695 23 63 26 83
7 55 -11 -18 -34 -84 -52 -152 -4 -13 -11 -23 -16 -23 -5 0 -9 -16 -9 -36 0
-19 -4 -33 -9 -30 -5 4 -7 -3 -4 -14 4 -16 2 -19 -11 -14 -17 7 -21 -7 -17
-58 2 -22 -1 -26 -18 -23 -14 2 -21 -1 -21 -11 0 -8 -9 -14 -21 -14 -16 0 -19
-4 -14 -20 4 -11 0 -33 -8 -50 -8 -16 -14 -43 -13 -61 1 -18 -3 -33 -11 -36
-8 -3 -13 -22 -13 -49 0 -24 -4 -44 -9 -44 -14 0 -23 -33 -37 -123 -4 -20 -11
-40 -17 -44 -5 -3 -7 -2 -4 3 3 6 2 16 -4 24 -6 11 -8 5 -5 -17 2 -18 -1 -33
-5 -33 -5 0 -9 -11 -9 -24 0 -14 -5 -28 -10 -31 -6 -4 -10 -31 -8 -62 3 -62
-18 -89 -25 -31 -2 18 -5 3 -5 -33 -1 -36 -5 -69 -9 -73 -4 -4 -8 -31 -8 -59
0 -35 -4 -51 -12 -50 -7 2 -11 -10 -11 -29 1 -18 -4 -34 -10 -36 -7 -2 -12
-16 -12 -31 0 -15 -9 -61 -20 -102 -13 -48 -20 -109 -20 -174 -1 -59 -5 -92
-9 -80 -11 28 -20 -71 -15 -157 3 -43 1 -68 -5 -68 -7 0 -11 -52 -12 -137 0
-76 -2 -154 -3 -173 -2 -19 -4 -56 -5 -82 -1 -49 -17 -66 -24 -25 -3 21 -4 21
-12 3 -6 -13 -5 -21 3 -24 7 -2 12 -17 12 -33 0 -16 5 -38 12 -49 10 -15 10
-26 0 -53 -7 -18 -12 -54 -12 -80 0 -36 -4 -47 -15 -47 -14 0 -16 -21 -14
-151 0 -83 -2 -153 -5 -156 -3 -4 -6 -46 -6 -95 0 -48 -4 -88 -8 -88 -5 0 -9
-82 -10 -182 -1 -104 -6 -186 -12 -192 -7 -7 -10 1 -10 21 0 18 -4 34 -9 37
-5 3 -9 -75 -10 -181 0 -121 -4 -189 -11 -191 -14 -5 -13 -154 1 -186 14 -30
-7 -116 -28 -116 -16 0 -16 2 -18 -165 -3 -262 -4 -275 -17 -273 -9 2 -14 -14
-16 -52 -1 -30 -7 -64 -12 -75 -7 -16 -15 -102 -20 -222 0 -7 -9 -13 -19 -13
-17 0 -19 -5 -14 -37 3 -21 12 -42 20 -46 8 -5 13 -26 13 -52 0 -34 -5 -47
-20 -55 -26 -14 -26 -56 0 -70 16 -9 20 -21 20 -65 0 -42 -3 -55 -15 -55 -10
0 -15 10 -15 31 0 20 -4 29 -12 26 -9 -3 -12 -28 -10 -87 2 -59 -1 -86 -10
-92 -10 -6 -10 -8 0 -8 8 0 12 -19 12 -60 0 -33 4 -60 10 -60 19 0 10 -49 -11
-61 -19 -9 -21 -18 -17 -61 4 -36 2 -51 -8 -55 -16 -6 -19 -73 -4 -73 6 0 10
-14 10 -31 0 -17 -4 -28 -10 -24 -5 3 -10 17 -10 31 0 15 -6 24 -15 24 -10 0
-15 -10 -15 -30 0 -20 5 -30 15 -30 12 0 15 -17 15 -90 l0 -90 -30 0 c-27 0
-30 -3 -30 -33 0 -18 5 -38 11 -44 14 -14 8 -55 -8 -61 -7 -2 -13 5 -13 15 0
15 -2 16 -10 3 -5 -8 -10 -51 -10 -95 0 -44 -6 -98 -12 -120 -6 -22 -14 -96
-17 -165 -5 -102 -9 -125 -21 -125 -12 0 -14 -12 -12 -58 3 -37 0 -57 -7 -57
-13 0 -15 -62 -2 -75 13 -15 22 -103 11 -110 -6 -3 -10 3 -10 15 0 12 -7 28
-15 36 -8 9 -16 27 -16 42 -1 15 -5 2 -10 -28 -5 -30 -6 -61 -3 -70 4 -8 8
-23 9 -32 1 -10 9 -26 18 -36 19 -20 24 -112 7 -112 -5 0 -10 9 -10 20 0 11
-4 20 -9 20 -12 0 -23 -32 -13 -39 4 -3 9 -42 10 -86 2 -70 1 -78 -11 -63 -8
10 -19 18 -26 18 -14 0 -15 -66 -1 -75 16 -10 12 -45 -5 -45 -10 0 -15 -11
-15 -35 0 -24 -5 -35 -15 -35 -8 0 -15 -9 -15 -20 0 -13 -5 -18 -15 -14 -10 4
-15 0 -15 -14 0 -15 6 -20 20 -19 14 1 20 9 20 27 l1 25 24 -30 c30 -37 31
-56 4 -81 -11 -10 -18 -26 -16 -36 5 -19 -2 -22 -41 -18 l-23 2 7 -126 7 -126
-32 0 c-35 0 -54 -26 -30 -41 12 -7 12 -9 0 -9 -10 0 -12 -16 -9 -70 3 -51 0
-70 -9 -70 -7 0 -10 6 -7 14 3 8 1 23 -5 33 -9 15 -10 13 -11 -14 0 -18 -4
-33 -10 -33 -5 0 -10 -8 -10 -17 0 -9 -6 -32 -12 -51 -11 -29 -10 -35 5 -43 9
-6 17 -21 17 -34 0 -22 -4 -25 -39 -25 -22 0 -42 -5 -44 -12 -4 -8 -6 -7 -6 4
-1 9 -7 18 -13 21 -9 3 -6 11 10 24 22 20 31 63 12 63 -5 0 -10 16 -10 36 0
31 -3 35 -23 32 -18 -2 -22 -9 -22 -38 0 -19 -4 -41 -9 -48 -13 -21 4 -29 18
-9 15 19 26 22 26 6 0 -14 -26 -39 -40 -39 -8 0 -10 -14 -5 -49 4 -31 3 -51
-4 -56 -16 -9 -13 -51 4 -65 17 -14 21 -85 5 -75 -5 3 -10 14 -10 24 0 32 -34
87 -54 86 -24 0 -33 -23 -12 -31 9 -3 16 -12 16 -20 0 -8 6 -11 15 -8 12 5 15
-3 15 -37 0 -59 -11 -73 -49 -67 -18 3 -35 0 -39 -6 -6 -10 -4 -111 3 -176 1
-14 3 -37 4 -52 1 -18 7 -28 16 -28 17 0 29 40 20 68 -3 11 -1 23 5 27 6 4 10
-6 10 -26 0 -18 8 -42 17 -53 17 -20 17 -20 1 -7 -17 12 -18 9 -20 -50 0 -35
-3 -49 -5 -32 -6 47 -23 41 -25 -9 l-1 -43 -4 38 c-3 26 -9 37 -17 34 -8 -3
-11 3 -8 22 2 17 -2 32 -12 40 -9 8 -16 24 -16 38 0 14 -4 22 -11 18 -5 -4 -9
-18 -7 -33 2 -14 -3 -27 -9 -29 -7 -3 -13 2 -13 11 0 9 -4 16 -10 16 -5 0 -10
-7 -10 -15 0 -8 4 -15 9 -15 6 0 11 -15 13 -32 2 -25 8 -33 23 -33 11 0 25 -4
32 -8 17 -11 5 -37 -17 -37 -27 0 -30 -10 -33 -94 -1 -53 -6 -76 -14 -76 -17
0 -17 -22 -1 -39 11 -11 10 -12 -1 -6 -10 6 -12 2 -6 -14 5 -17 2 -21 -15 -21
-19 0 -21 4 -16 25 4 14 2 25 -4 25 -13 0 -13 27 -1 32 6 2 6 18 2 38 l-8 35
-11 -28 c-7 -15 -11 -31 -11 -35 3 -18 -2 -32 -12 -32 -14 0 -39 -26 -39 -40
0 -14 -25 -40 -39 -40 -6 0 -11 -7 -11 -15 0 -8 7 -15 15 -15 8 0 15 7 15 15
0 8 9 15 20 15 11 0 20 -4 20 -10 0 -14 -48 -43 -60 -35 -6 3 -10 -3 -10 -14
0 -12 -4 -21 -10 -21 -5 0 -10 -9 -10 -19 0 -11 -4 -23 -10 -26 -5 -3 -10 -16
-10 -28 0 -21 1 -21 13 2 14 29 44 43 34 17 -4 -10 -7 -33 -7 -52 0 -24 -5
-34 -15 -34 -10 0 -15 -11 -15 -35 0 -19 -4 -35 -10 -35 -5 0 -10 16 -10 36 0
29 -3 34 -13 25 -19 -15 -19 -68 -1 -75 8 -3 14 -17 14 -31 0 -21 4 -26 23
-23 20 3 22 -1 19 -39 -1 -23 2 -44 7 -48 12 -7 3 -35 -10 -35 -5 0 -9 7 -9
15 0 9 -10 26 -22 38 -13 12 -23 33 -23 47 0 20 -5 25 -25 25 -19 0 -26 -7
-34 -33 -8 -29 -13 -32 -39 -30 -17 2 -32 -2 -34 -8 -5 -14 59 -17 92 -4 29
11 30 9 9 -36 -9 -19 -23 -34 -30 -34 -16 0 -18 -18 -5 -39 8 -12 12 -13 26
-1 13 11 18 10 30 -6 18 -24 19 -57 3 -51 -7 2 -12 13 -10 25 3 19 -1 20 -47
19 -44 -2 -50 0 -54 19 -4 22 22 54 43 54 6 0 10 4 10 8 0 4 -18 8 -40 9 -22
1 -40 -1 -40 -5 1 -4 5 -26 9 -50 5 -25 5 -45 -1 -48 -5 -3 -3 -12 4 -21 11
-14 9 -15 -20 -9 -21 5 -32 4 -32 -3 0 -6 -13 -11 -30 -11 l-29 0 -1 -1120 0
-1120 5580 0 c3069 0 5580 4 5580 8 0 4 -6 14 -12 21 -11 10 -10 11 5 6 9 -4
17 -13 17 -21 0 -8 10 -14 21 -14 17 0 19 3 10 14 -10 12 -8 13 8 9 12 -3 21
-9 21 -13 0 -4 93 -9 206 -9 155 -1 210 1 222 11 12 10 14 10 8 1 -5 -10 9
-13 58 -13 37 0 66 4 66 10 0 6 7 10 15 10 8 0 15 -4 15 -10 0 -5 9 -10 20
-10 11 0 20 5 20 10 0 13 -22 53 -34 61 -5 4 -6 14 -3 22 7 19 69 17 92 -3 17
-14 20 -40 5 -40 -5 0 -10 -4 -10 -9 0 -4 11 -6 25 -3 32 6 32 30 0 61 -18 16
-24 30 -19 43 5 18 2 20 -39 17 -25 -2 -43 -1 -41 3 2 4 -1 10 -7 14 -8 5 -8
9 1 14 8 5 10 24 5 65 -6 44 -12 59 -26 62 -27 7 -23 23 5 23 16 0 27 -7 31
-20 3 -11 11 -20 16 -20 19 0 21 31 4 50 -9 10 -21 35 -25 56 -7 30 -5 40 7
49 11 8 14 18 8 31 -4 10 -7 22 -7 26 1 5 -16 8 -37 8 -41 0 -63 16 -41 30 15
9 5 30 -15 30 -7 0 -15 -6 -18 -12 -3 -10 -7 -10 -20 1 -14 11 -18 11 -23 -3
-3 -9 -10 -13 -16 -10 -5 3 -4 11 3 20 8 10 32 13 87 11 47 -1 77 2 79 9 2 7
-7 9 -26 6 -32 -4 -40 4 -51 55 -6 26 -5 36 6 40 16 6 18 41 5 62 -8 12 -12
12 -25 2 -11 -9 -16 -10 -16 -2 0 6 4 11 9 11 5 0 13 9 16 20 8 24 25 27 25 4
0 -20 24 -13 28 9 2 10 -3 17 -12 17 -17 0 -21 12 -9 23 3 4 15 0 25 -10 17
-15 18 -14 18 23 0 34 3 40 22 41 27 2 38 -12 38 -51 0 -38 6 -31 14 17 6 30
4 37 -9 37 -8 0 -15 6 -15 14 0 9 -7 12 -19 9 -23 -6 -37 13 -15 21 9 3 25 -1
37 -9 32 -22 37 -19 37 21 0 23 -6 42 -17 50 -17 13 -17 13 0 14 9 0 17 -4 17
-10 0 -16 27 -11 34 6 9 23 8 24 -16 24 -15 0 -19 3 -12 10 6 6 18 8 28 4 15
-6 16 -15 10 -62 -5 -38 -3 -53 4 -48 6 3 11 19 12 34 3 81 6 97 18 95 15 -4
16 19 0 35 -9 9 -8 12 6 12 9 0 15 -4 12 -9 -3 -5 1 -12 10 -15 24 -9 26 -8
19 15 -5 16 -3 20 6 17 8 -3 13 -15 12 -27 -3 -22 11 -29 22 -11 3 6 15 10 27
10 15 0 19 5 15 20 -3 11 -1 23 4 26 6 3 7 14 4 25 -5 14 -3 17 9 13 14 -5 16
2 14 40 0 26 -5 49 -10 52 -4 3 -8 17 -7 32 0 26 1 26 9 5 11 -27 25 -30 34
-7 5 13 8 14 27 1 16 -12 26 -12 50 -4 36 14 37 23 3 31 -27 7 -26 6 -11 68 2
7 2 10 0 5 -6 -10 -33 -9 -33 2 0 12 25 19 68 19 25 1 32 -3 32 -19 0 -12 -7
-19 -20 -19 -21 0 -38 -25 -26 -37 7 -7 57 16 69 32 4 5 5 20 2 33 -6 25 -2
27 25 12 17 -9 20 -6 26 25 3 19 10 35 14 35 5 0 6 -8 3 -19 -3 -10 0 -22 6
-25 19 -12 17 84 -3 97 -6 5 0 5 14 2 14 -4 29 -11 35 -16 18 -17 26 -9 23 23
-3 28 0 33 20 34 33 2 37 10 25 55 -7 29 -7 39 1 36 6 -2 13 -13 16 -25 7 -29
27 -15 32 22 1 16 9 32 17 34 11 4 12 -5 7 -43 -5 -33 -4 -45 3 -40 6 3 11 13
11 21 0 20 20 17 21 -3 0 -10 3 -13 5 -7 3 6 -1 24 -8 40 -18 45 -16 49 25 46
38 -4 39 -3 35 30 -3 31 -1 33 27 33 44 0 52 9 59 65 5 34 11 50 21 50 8 0 15
4 15 9 0 5 9 11 20 14 13 3 22 17 26 36 7 35 35 56 52 39 5 -5 15 -7 22 -3 8
5 6 12 -6 26 -15 16 -15 19 -2 19 21 0 32 31 16 42 -9 6 -5 7 10 3 24 -7 28 5
12 35 -6 12 -7 21 0 25 5 3 12 -5 16 -19 4 -16 11 -23 20 -19 8 3 14 -1 14 -8
0 -7 3 -10 6 -7 3 4 1 15 -5 26 -8 15 -7 23 2 30 14 12 31 4 40 -18 3 -8 6 1
6 21 1 19 7 41 14 48 9 11 9 14 0 18 -9 3 -10 10 -3 24 7 13 7 19 0 19 -5 0
-10 11 -10 25 0 32 16 33 24 1 4 -18 11 -23 26 -19 26 7 26 19 0 26 -11 3 -20
10 -20 16 0 6 3 10 8 9 8 -3 12 5 12 28 0 8 -4 12 -10 9 -6 -3 -7 1 -3 10 3 9
9 12 12 7 6 -10 33 -16 59 -13 6 0 12 8 12 16 0 9 -6 12 -15 9 -21 -8 -19 22
2 34 12 7 14 17 10 41 -5 22 -3 31 6 31 7 0 21 15 32 32 10 18 29 44 42 58 13
14 23 28 23 32 0 5 8 16 19 27 25 25 173 252 243 371 126 218 245 492 320 740
58 193 68 231 63 241 -12 18 -22 9 -17 -16 3 -16 0 -25 -8 -25 -7 0 -10 -7 -6
-15 5 -15 -17 -103 -35 -138 -5 -9 -12 -38 -16 -62 -6 -44 -16 -57 -26 -32 -3
6 -6 -4 -6 -24 -1 -24 -7 -39 -17 -43 -9 -4 -14 -13 -10 -22 3 -8 2 -12 -4 -9
-6 3 -13 -1 -16 -9 -3 -9 -10 -14 -14 -11 -13 8 -23 -14 -12 -28 11 -14 -11
-74 -25 -69 -4 1 -10 -8 -11 -20 -6 -36 -22 -46 -22 -14 0 17 -5 26 -12 24 -7
-3 -20 5 -29 16 -10 12 -21 17 -25 13 -5 -4 -2 -12 5 -16 11 -7 11 -9 0 -13
-11 -4 -12 -9 -2 -26 13 -22 8 -33 -13 -25 -8 3 -14 18 -14 34 0 16 -4 29 -10
29 -5 0 -10 -16 -10 -36 0 -21 -4 -33 -10 -29 -5 3 -10 19 -10 36 0 25 -4 29
-26 29 -25 0 -26 1 -22 58 3 55 2 57 -23 60 -37 4 -107 73 -111 108 -2 24 -8
29 -28 28 -14 -1 -30 5 -35 13 -6 8 -18 13 -26 12 -21 -5 -69 47 -56 60 13 13
-9 41 -33 41 -13 0 -16 6 -12 25 4 22 1 25 -26 25 -19 0 -32 -6 -37 -17 -6
-17 -7 -17 -19 0 -7 9 -24 17 -37 18 -13 0 -18 3 -11 6 14 5 17 63 3 63 -5 0
-13 -9 -16 -20 -11 -34 -25 -11 -25 41 0 37 -4 52 -19 61 -15 9 -17 16 -9 31
5 10 7 21 4 25 -3 3 -6 0 -6 -6 0 -7 -5 -12 -11 -12 -7 0 -18 -8 -25 -18 -12
-15 -13 -14 -14 11 0 23 -4 27 -30 27 -21 0 -30 -5 -30 -16 0 -11 -6 -14 -22
-8 -33 10 -48 24 -41 40 3 8 1 14 -5 14 -6 0 -12 -6 -15 -12 -9 -26 -41 7 -41
43 -1 33 -2 34 -48 37 -46 3 -48 5 -48 33 0 30 -7 33 -56 30 -15 -2 -25 7 -34
28 -8 20 -20 31 -32 31 -10 0 -17 -4 -14 -9 8 -13 -11 -18 -46 -13 -15 2 -28
11 -28 18 0 9 -12 14 -35 14 -21 0 -35 -5 -35 -12 0 -9 -3 -9 -12 0 -9 9 -6
17 11 36 32 34 22 61 -19 52 -26 -5 -32 -2 -40 19 -5 14 -14 25 -20 25 -5 0
-10 14 -10 31 0 16 -4 28 -9 24 -5 -3 -12 3 -14 12 -4 17 -5 17 -6 0 -1 -14
-6 -17 -23 -11 -13 4 -25 10 -28 13 -3 4 -22 15 -42 24 -20 9 -38 22 -40 28
-2 7 -25 11 -56 11 -49 -2 -57 3 -53 31 1 8 -23 10 -32 1 -3 -3 10 -19 29 -36
18 -16 48 -60 66 -96 30 -61 33 -74 32 -157 -1 -113 -16 -148 -98 -234 -42
-44 -66 -80 -75 -108 -27 -97 -143 -188 -255 -200 -52 -6 -56 1 -31 60 17 42
19 94 5 131 -5 14 -45 61 -88 103 -63 63 -82 90 -101 140 -32 86 -27 185 12
263 27 54 85 124 108 132 9 3 9 9 1 24 -6 10 -12 13 -12 6 0 -10 -4 -10 -20 0
-25 16 -26 28 -1 28 27 0 37 19 15 27 -10 4 -19 2 -22 -5 -5 -16 -42 -16 -42
0 0 9 -3 9 -12 -1 -11 -10 -9 -16 10 -31 25 -21 29 -50 7 -50 -8 0 -15 5 -15
10 0 6 -4 10 -10 10 -5 0 -10 -9 -10 -20 0 -11 -5 -20 -11 -20 -8 0 -10 12 -6
35 3 19 2 35 -2 35 -5 0 -12 10 -16 22 -7 20 -9 17 -12 -16 -3 -27 -10 -40
-23 -43 -10 -3 -20 -15 -22 -26 -2 -17 -11 -22 -43 -25 -65 -5 -85 4 -85 38 0
16 5 32 10 35 6 3 10 15 10 26 0 15 7 19 35 19 33 0 35 2 35 34 0 34 -20 61
-28 38 -6 -20 -22 -3 -22 23 0 20 5 24 23 22 12 -1 26 -6 30 -12 5 -6 6 -2 3
8 -9 28 4 41 20 20 13 -16 14 -15 12 16 -2 20 3 36 9 38 8 3 10 15 6 34 -5 27
-4 29 28 29 25 0 30 3 19 9 -8 6 -17 8 -20 6 -3 -2 -10 7 -16 19 -9 19 -7 24
13 33 14 7 25 7 29 2 9 -16 24 1 24 27 0 17 8 27 26 34 22 9 25 14 19 40 -4
19 -3 30 4 30 6 0 13 11 17 25 3 14 15 30 25 36 11 5 19 18 19 29 0 10 5 22
10 25 6 4 10 14 8 24 -4 23 30 74 46 68 17 -7 38 30 31 53 -4 12 5 29 25 51
20 23 30 44 30 65 0 23 9 40 33 61 38 35 57 65 57 93 0 11 7 20 15 20 10 0 15
10 15 34 0 19 5 38 10 41 6 3 10 19 10 35 0 35 15 46 37 28 15 -12 16 -10 10
13 -5 18 -2 31 7 38 8 7 17 23 20 36 4 14 11 25 16 25 6 0 10 9 10 20 0 11 16
43 35 70 19 27 35 56 35 63 0 8 11 26 25 41 14 15 25 33 25 40 0 8 7 16 15 20
8 3 15 12 15 21 0 8 3 15 8 15 24 0 446 -129 777 -237 110 -36 232 -76 270
-88 39 -13 221 -72 405 -133 460 -151 526 -172 545 -172 16 0 17 148 12 2079
-3 1337 -8 2084 -14 2096 -8 13 -11 0 -12 -51 -1 -37 -3 -69 -5 -71 -1 -2 -11
4 -22 13 -13 11 -15 17 -6 20 18 8 15 21 -8 27 -14 4 -20 0 -20 -12 0 -26 -10
-32 -26 -16 -18 17 -18 35 0 35 7 0 16 10 19 22 6 21 7 21 27 3 16 -15 20 -15
20 -3 0 8 -11 20 -23 25 -19 9 -23 17 -19 41 2 16 -1 33 -7 36 -7 5 -11 -7
-11 -34 0 -47 -23 -52 -28 -7 -2 19 -9 27 -23 27 -28 0 -52 26 -44 49 3 11 1
22 -5 26 -5 3 -11 -2 -12 -12 0 -10 -2 -24 -2 -30 -2 -28 -22 -12 -30 24 -5
21 -13 41 -19 44 -5 4 -7 20 -3 35 4 16 8 34 9 39 1 6 -2 10 -6 10 -5 0 -13 8
-18 18 -8 13 -14 15 -30 7 -12 -7 -19 -7 -19 -1 0 9 44 28 46 20 1 -2 10 3 20
12 11 9 53 31 94 48 41 18 95 42 120 54 l45 22 -2 315 c-3 616 -52 943 -210
1410 -131 383 -341 735 -635 1060 -409 453 -916 741 -1563 889 -278 64 -520
95 -865 111 -201 10 -2056 18 -2657 12z m1488 -536 c113 -26 238 -118 302
-223 50 -80 69 -158 65 -258 -4 -77 -9 -101 -40 -165 -19 -41 -54 -96 -77
-122 -180 -202 -492 -210 -676 -17 -250 262 -132 689 216 783 68 19 139 19
210 2z m2672 -1894 c58 -26 111 -74 158 -144 32 -46 45 -58 67 -58 43 -1 107
-35 155 -83 141 -140 103 -392 -73 -491 l-55 -31 -312 -3 c-319 -3 -392 2
-461 35 -53 25 -110 87 -141 152 -22 47 -26 70 -26 141 0 91 15 133 71 199 31
38 120 91 150 91 15 0 32 16 54 49 54 84 126 140 207 161 53 13 156 4 206 -18z
m-3332 -1205 c-8 -8 -11 -6 -11 6 0 9 -6 17 -12 18 -7 0 -4 4 7 8 23 9 34 -14
16 -32z m-1106 -96 c3 -6 13 -10 23 -10 38 0 99 -9 125 -20 16 -6 34 -11 41
-11 8 0 19 -7 26 -15 7 -8 19 -15 26 -15 8 0 14 -4 14 -8 0 -13 76 -36 98 -30
20 6 73 -41 85 -74 5 -15 19 -18 69 -18 39 -1 70 -6 82 -15 10 -8 22 -12 27
-10 4 3 11 0 15 -6 5 -8 3 -9 -6 -4 -9 5 -11 4 -6 -4 4 -6 16 -9 26 -6 12 4
19 -1 23 -15 4 -15 13 -20 36 -20 29 0 31 -3 31 -34 0 -30 -3 -35 -27 -38 -22
-2 -28 -8 -28 -28 0 -20 -7 -26 -30 -30 -25 -4 -30 -10 -30 -35 -1 -29 -3 -30
-52 -36 -61 -8 -73 -14 -73 -40 0 -12 -7 -19 -20 -19 -16 0 -20 7 -20 30 0 23
-4 30 -20 30 -17 0 -20 7 -20 46 0 27 -4 43 -10 39 -5 -3 -10 0 -11 7 0 10 -2
11 -6 0 -9 -22 -33 7 -33 39 0 22 -5 29 -19 29 -11 0 -28 11 -38 24 -16 19
-21 21 -31 9 -7 -7 -17 -11 -21 -8 -5 2 -11 -16 -14 -40 -20 -146 -159 -258
-298 -242 -119 14 -224 120 -240 242 l-6 50 -2 -42 c0 -24 -5 -43 -10 -43 -5
0 -12 -11 -15 -25 -6 -25 -26 -35 -26 -13 0 20 -15 -2 -17 -25 -1 -12 -9 -47
-17 -77 -9 -30 -16 -92 -16 -138 0 -75 2 -84 20 -89 13 -3 20 -14 20 -29 0
-20 -5 -24 -30 -24 -27 0 -30 -3 -30 -30 l0 -30 -69 0 c-52 0 -70 4 -75 15 -8
22 -36 18 -36 -4 0 -15 8 -21 33 -24 17 -2 2 -5 -34 -5 -59 -2 -67 0 -72 18
-3 13 -14 20 -30 20 -16 0 -26 7 -30 19 -3 14 -12 19 -32 17 -16 -2 -29 2 -32
10 -8 22 -54 17 -60 -6 -5 -17 -27 -26 -55 -21 -5 0 -8 -8 -8 -19 0 -18 -11
-25 -33 -21 -5 1 -5 -4 -2 -10 4 -6 16 -9 26 -6 11 3 19 1 19 -5 0 -5 5 -6 10
-3 6 3 10 -4 11 -17 0 -13 3 -17 6 -10 7 17 23 5 23 -19 0 -12 7 -19 19 -19
22 0 51 -54 51 -95 0 -15 7 -52 16 -83 41 -142 -29 -297 -165 -364 -94 -47
-227 -24 -315 52 -70 62 -116 190 -98 274 8 39 7 45 -9 49 -13 4 -17 -1 -17
-22 0 -14 -3 -36 -7 -48 -6 -19 -10 -20 -26 -10 -10 6 -19 18 -19 25 0 10 -4
9 -16 -3 -19 -18 -29 -13 -21 10 4 8 16 15 27 15 11 0 20 7 20 16 0 8 13 20
29 25 21 8 28 15 24 26 -4 10 -2 14 4 10 6 -4 16 7 23 24 7 17 22 34 33 38 18
7 18 9 3 23 -9 9 -16 21 -16 27 0 5 -5 13 -12 17 -8 5 -9 -2 -5 -24 6 -31 -6
-45 -16 -19 -3 7 -6 4 -6 -6 -1 -10 -5 -16 -10 -13 -15 10 -111 -95 -111 -122
0 -17 -5 -22 -17 -20 -26 4 -43 -10 -43 -35 0 -17 -6 -23 -22 -22 -13 0 -24
-4 -25 -10 -1 -5 -17 -12 -35 -15 -27 -4 -34 -10 -36 -32 -3 -22 -9 -27 -35
-30 -27 -2 -33 -8 -35 -30 -3 -24 -8 -28 -33 -28 -25 0 -29 4 -29 30 0 28 -1
29 -57 32 -55 3 -58 4 -61 31 -2 15 -8 27 -13 27 -5 0 -9 14 -9 30 0 17 4 30
8 30 11 0 32 60 32 91 1 23 21 59 34 59 16 0 65 67 66 90 0 29 13 53 26 48 5
-1 10 11 12 29 2 17 10 37 18 43 8 7 14 18 14 25 0 7 11 20 25 29 14 9 25 22
25 30 0 7 16 29 35 49 19 20 35 41 35 47 0 5 4 10 8 10 16 0 100 86 104 105 2
11 10 20 18 21 8 0 38 21 65 47 28 26 58 47 68 47 9 0 17 5 17 10 0 6 7 10 15
10 8 0 22 11 31 25 9 14 20 25 25 25 8 0 139 62 169 80 8 5 33 16 55 25 22 9
57 25 77 36 20 10 43 19 50 19 8 0 32 9 53 20 36 18 109 35 190 44 17 2 34 4
38 5 5 0 5 6 1 13 -4 7 -3 8 4 4 17 -10 131 5 146 19 15 15 223 34 235 22 5
-5 25 -1 46 7 21 9 57 16 81 16 23 0 46 5 49 10 8 13 62 13 70 1z m5793 -268
c-2 -9 -11 -17 -20 -19 -15 -2 -16 1 -8 17 13 23 33 25 28 2z m72 2 c0 -8 -4
-15 -10 -15 -5 0 -10 7 -10 15 0 8 5 15 10 15 6 0 10 -7 10 -15z m-133 -31
c-3 -3 -12 -4 -19 -1 -8 3 -5 6 6 6 11 1 17 -2 13 -5z m113 -15 c0 -6 -4 -7
-10 -4 -5 3 -10 11 -10 16 0 6 5 7 10 4 6 -3 10 -11 10 -16z m85 -47 c-8 -8
-26 39 -19 50 5 8 11 1 16 -17 4 -16 6 -31 3 -33z m-65 8 c0 -5 -4 -10 -10
-10 -5 0 -10 5 -10 10 0 6 5 10 10 10 6 0 10 -4 10 -10z m100 -48 c0 -9 -5
-24 -10 -32 -7 -11 -10 -5 -10 23 0 23 4 36 10 32 6 -3 10 -14 10 -23z m70
-52 c0 -5 -7 -10 -15 -10 -8 0 -15 -5 -15 -12 0 -6 -3 -9 -6 -5 -11 10 4 37
21 37 8 0 15 -4 15 -10z m30 -40 c0 -5 -5 -10 -11 -10 -5 0 -7 5 -4 10 3 6 8
10 11 10 2 0 4 -4 4 -10z m130 -140 c0 -5 -5 -10 -11 -10 -5 0 -7 5 -4 10 3 6
8 10 11 10 2 0 4 -4 4 -10z m-5166 -246 c57 -20 129 -89 147 -142 7 -20 13
-64 14 -97 0 -48 -6 -69 -27 -106 -52 -89 -120 -129 -218 -129 -74 0 -116 16
-163 64 -56 55 -77 105 -77 177 0 78 26 135 82 184 73 62 155 78 242 49z
m-1810 -170 c3 -8 2 -12 -4 -9 -6 3 -10 10 -10 16 0 14 7 11 14 -7z m880 -319
c171 -56 293 -178 351 -348 81 -243 -46 -532 -285 -646 -67 -32 -85 -36 -172
-39 -56 -3 -118 1 -144 7 -78 20 -169 70 -233 130 -229 212 -235 557 -12 780
130 130 317 174 495 116z m-6557 -517 c-3 -7 -5 -2 -5 12 0 14 2 19 5 13 2 -7
2 -19 0 -25z m2420 -810 c-3 -8 -6 -5 -6 6 -1 11 2 17 5 13 3 -3 4 -12 1 -19z
m9399 -92 c70 -32 128 -87 158 -149 36 -71 37 -177 1 -246 -61 -121 -184 -172
-345 -141 -47 9 -56 8 -94 -15 -51 -30 -105 -32 -137 -6 l-23 18 22 28 c28 35
27 40 -3 109 -68 153 -5 310 157 390 61 31 80 36 142 36 54 0 83 -6 122 -24z
m-11029 -432 c-3 -3 -12 -4 -19 -1 -8 3 -5 6 6 6 11 1 17 -2 13 -5z m141 -9
c-9 -9 -67 -12 -62 -4 3 5 9 7 14 4 5 -3 11 -1 15 4 3 6 12 8 21 4 8 -3 14 -7
12 -8z m585 -75 c30 0 40 -10 26 -27 -33 -39 -131 7 -144 67 -11 50 4 51 50 4
28 -27 53 -44 68 -44z m724 38 c-3 -7 -5 -2 -5 12 0 14 2 19 5 13 2 -7 2 -19
0 -25z m-217 -88 c0 -5 -4 -10 -10 -10 -5 0 -10 5 -10 10 0 6 5 10 10 10 6 0
10 -4 10 -10z m8259 -442 c-12 -20 -14 -21 -17 -5 -2 10 2 25 9 34 18 21 23 0
8 -29z m-7518 -108 c17 -36 42 -92 57 -125 122 -271 314 -600 480 -820 121
-161 164 -213 257 -313 33 -35 62 -71 65 -79 3 -8 8 -13 11 -11 9 5 69 -59 61
-67 -4 -3 -2 -5 3 -4 6 2 20 -3 32 -11 16 -10 21 -21 17 -40 -3 -21 -3 -22 4
-5 9 19 9 19 21 -3 7 -12 16 -20 22 -17 5 4 9 1 9 -4 0 -6 -7 -11 -15 -11 -8
0 -15 -8 -15 -17 0 -14 2 -15 9 -5 6 11 12 8 27 -10 23 -29 51 -41 58 -25 3 7
3 2 0 -10 -3 -16 2 -30 18 -46 13 -13 32 -35 43 -50 11 -15 25 -27 32 -27 6 0
18 -8 25 -18 15 -21 58 -47 58 -35 1 4 9 -8 18 -27 12 -23 24 -34 35 -32 25 4
59 -17 53 -33 -3 -9 0 -12 8 -9 15 6 56 -40 56 -62 0 -7 18 -18 40 -24 21 -6
46 -17 55 -26 17 -17 20 -28 5 -19 -5 3 -10 1 -10 -4 0 -10 14 -15 33 -12 4 0
7 -8 7 -18 0 -14 11 -23 37 -32 21 -6 43 -17 49 -23 7 -6 20 -18 30 -27 27
-23 64 -68 64 -77 0 -15 78 -82 95 -82 9 0 18 -7 21 -15 4 -8 12 -15 19 -15 7
0 20 -11 31 -24 10 -14 22 -23 26 -20 5 3 17 2 29 -1 13 -5 18 -12 14 -25 -4
-13 1 -19 20 -24 14 -4 34 -15 45 -26 11 -11 26 -19 32 -17 7 1 14 -8 16 -20
2 -13 11 -23 20 -23 16 -1 64 -30 49 -30 -4 0 2 -9 13 -20 11 -11 24 -20 29
-20 5 0 13 -9 16 -20 5 -16 12 -19 33 -14 22 5 25 4 15 -7 -24 -24 -15 -39 23
-39 35 0 64 -18 64 -39 0 -6 5 -11 11 -11 7 0 9 -9 6 -21 -4 -17 -3 -19 6 -10
17 17 47 13 48 -6 0 -13 3 -11 10 6 7 17 6 27 -2 32 -9 5 -8 11 4 23 25 25 30
1 13 -52 -9 -27 -27 -91 -41 -143 -52 -202 -58 -220 -66 -207 -12 19 -11 30 3
22 8 -5 9 2 5 24 -4 20 -1 34 8 42 8 7 14 20 14 29 -1 13 -2 13 -6 -1 -5 -22
-43 -24 -43 -3 0 7 8 19 18 24 9 6 11 11 5 11 -8 0 -13 13 -13 29 0 27 -39 90
-40 64 0 -22 12 -43 23 -36 7 4 8 0 2 -13 -4 -10 -8 -33 -8 -50 -1 -20 -5 -30
-12 -27 -7 2 -10 16 -8 31 3 18 2 23 -5 14 -6 -10 -51 -13 -180 -13 l-172 1 0
-63 0 -62 -98 1 c-212 2 -202 0 -202 34 0 30 -1 31 -35 24 -28 -5 -35 -3 -35
9 0 8 5 17 11 19 15 5 0 58 -17 58 -8 0 -14 -4 -14 -10 0 -5 -20 -10 -45 -10
-44 0 -54 -7 -36 -26 5 -5 6 -29 2 -54 -6 -43 -7 -45 -43 -48 -33 -3 -37 -6
-40 -35 -3 -29 -6 -32 -34 -29 -30 3 -31 1 -37 -38 -5 -42 -17 -63 -24 -45
-13 36 -23 40 -43 16 -17 -20 -21 -21 -26 -7 -3 9 -12 16 -19 16 -9 0 -9 -11
1 -51 14 -52 12 -69 -8 -69 -6 0 -8 12 -5 30 7 32 -2 43 -27 34 -24 -9 -21
-65 3 -71 23 -6 45 -95 27 -113 -30 -30 -67 12 -43 51 9 15 8 22 -7 36 -17 17
-17 17 -14 -6 2 -17 -3 -26 -19 -32 -18 -6 -23 -5 -23 7 0 9 -6 30 -14 47 -8
18 -16 39 -19 47 -2 8 -7 0 -11 -18 -6 -24 -4 -38 7 -50 8 -9 17 -34 19 -54 4
-35 2 -37 -27 -40 -26 -3 -30 -6 -27 -31 3 -26 0 -28 -25 -25 -22 2 -29 -2
-35 -22 -4 -14 -5 -1 -2 30 10 92 7 138 -11 176 l-17 36 -29 -29 c-15 -15 -29
-36 -29 -45 0 -30 -20 -20 -20 10 -1 15 -7 38 -15 52 l-15 25 6 -27 c5 -25 3
-28 -19 -28 -25 0 -37 -16 -37 -50 0 -14 9 -20 38 -23 l37 -4 -44 -1 c-35 -2
-42 -5 -37 -18 3 -9 6 -20 6 -26 0 -5 17 -8 37 -6 35 3 56 -13 34 -27 -6 -3
-11 -23 -11 -43 l0 -37 -19 24 -18 24 -7 -27 c-5 -22 -12 -26 -40 -26 -32 0
-34 -2 -38 -39 -2 -21 -2 -75 0 -120 l4 -81 29 0 c26 0 29 -3 29 -34 0 -19 -4
-37 -8 -40 -17 -10 -52 7 -52 25 0 11 -4 19 -10 19 -5 0 -7 -21 -3 -50 4 -36
2 -50 -7 -50 -8 0 -10 8 -6 24 7 27 -10 38 -59 39 -26 1 -30 -3 -33 -31 -6
-56 -72 -52 -72 5 0 21 -4 24 -32 21 -29 -3 -33 -7 -33 -30 1 -31 1 -30 -66
-28 -38 1 -47 -2 -51 -18 -3 -11 -17 -21 -32 -24 -23 -5 -26 -2 -26 20 0 18
-3 23 -10 16 -12 -12 4 -103 25 -143 l12 -25 7 22 c11 34 26 26 26 -13 0 -19
-4 -35 -10 -35 -5 0 -10 5 -10 10 0 15 -17 12 -35 -6 -12 -12 -14 -27 -9 -60
l6 -44 -36 0 c-32 0 -36 3 -36 25 0 22 -4 25 -36 25 -28 0 -35 -3 -30 -15 4
-11 -2 -15 -24 -15 -25 0 -30 -4 -30 -25 0 -22 5 -25 38 -26 l37 -2 -40 -6
c-31 -5 -40 -10 -40 -26 0 -16 8 -21 40 -25 22 -3 50 -2 63 2 22 7 22 6 22
-82 l0 -90 -60 0 c-47 0 -60 3 -60 15 0 8 -4 15 -10 15 -5 0 -10 -9 -10 -20 0
-23 -10 -26 -28 -8 -9 9 -12 4 -12 -25 0 -34 -2 -37 -29 -37 -20 0 -35 8 -49
27 -17 24 -22 26 -36 13 -15 -11 -18 -11 -22 6 -5 18 -11 20 -56 14 -44 -6
-51 -4 -56 12 -3 11 -13 18 -29 18 -15 0 -22 4 -17 11 4 8 25 9 62 5 l55 -7
-7 62 c-3 35 -7 63 -9 64 -1 1 -14 5 -29 9 -26 6 -28 4 -28 -24 0 -27 -3 -30
-30 -30 -29 0 -30 -2 -31 -47 0 -27 -3 -42 -6 -35 -2 6 -14 12 -26 11 -21 0
-21 -1 -2 -9 15 -6 8 -9 -27 -9 -27 -1 -48 4 -48 9 0 6 11 10 24 10 19 0 23 4
19 20 -6 21 -37 27 -48 10 -8 -13 -75 -13 -75 0 0 6 -13 10 -30 10 -20 0 -30
5 -30 15 0 11 -13 14 -59 12 -39 -1 -57 2 -54 9 6 16 -24 37 -43 30 -9 -3 -14
-13 -11 -20 3 -8 0 -20 -8 -26 -8 -6 -11 -18 -8 -26 3 -8 1 -14 -3 -14 -13 1
-44 26 -44 35 0 4 6 3 13 -3 9 -8 16 -6 24 6 13 22 5 82 -11 76 -19 -7 -38 12
-45 47 -5 27 -12 35 -34 37 -19 2 -27 -1 -27 -12 0 -23 -37 -20 -43 4 -6 23
-37 28 -37 6 0 -8 -5 -16 -11 -18 -6 -2 0 -12 13 -23 16 -15 19 -15 9 -3 -11
15 -10 20 4 34 12 13 16 14 15 3 -4 -28 0 -39 16 -39 11 0 15 -6 11 -20 -3
-11 -1 -20 3 -20 5 0 11 13 15 29 3 17 14 31 26 34 16 4 19 0 19 -33 0 -22 -5
-42 -11 -46 -8 -4 -8 -9 1 -18 7 -7 13 -8 18 0 9 13 53 13 49 -1 -2 -5 -13 -9
-23 -8 -10 1 -22 -3 -25 -9 -5 -8 -85 38 -144 84 -5 4 -50 38 -100 75 -385
287 -695 670 -921 1138 -109 225 -158 356 -243 650 -116 399 -190 989 -191
1522 0 106 1 113 23 127 20 13 419 164 622 236 88 31 280 99 420 149 50 18
191 68 315 111 124 43 290 102 370 130 384 137 580 195 593 176 4 -6 22 -40
38 -76z m7492 55 c-3 -9 -8 -14 -10 -11 -3 3 -2 9 2 15 9 16 15 13 8 -4z m-66
-67 c-3 -8 -6 -5 -6 6 -1 11 2 17 5 13 3 -3 4 -12 1 -19z m-57 -182 c0 -3 -4
-8 -10 -11 -5 -3 -10 -1 -10 4 0 6 5 11 10 11 6 0 10 -2 10 -4z m-40 -61 c0
-8 -4 -15 -10 -15 -5 0 -7 7 -4 15 4 8 8 15 10 15 2 0 4 -7 4 -15z m-157 -260
c-3 -9 -8 -14 -10 -11 -3 3 -2 9 2 15 9 16 15 13 8 -4z m-66 -97 c-3 -8 -6 -5
-6 6 -1 11 2 17 5 13 3 -3 4 -12 1 -19z m-10147 -34 c0 -14 -4 -23 -10 -19 -5
3 -10 15 -10 26 0 10 5 19 10 19 6 0 10 -12 10 -26z m-13 -211 c-2 -21 -4 -6
-4 32 0 39 2 55 4 38 2 -18 2 -50 0 -70z m-47 -340 c0 -18 -4 -33 -9 -33 -10
0 -23 69 -14 83 9 15 23 -15 23 -50z m10430 -533 c0 -5 -4 -10 -10 -10 -5 0
-10 5 -10 10 0 6 5 10 10 10 6 0 10 -4 10 -10z m-10490 -30 c0 -11 -4 -20 -10
-20 -5 0 -10 9 -10 20 0 11 5 20 10 20 6 0 10 -9 10 -20z m11008 -55 c-3 -3
-9 2 -12 12 -6 14 -5 15 5 6 7 -7 10 -15 7 -18z m472 -275 c0 -5 -4 -10 -10
-10 -5 0 -10 5 -10 10 0 6 5 10 10 10 6 0 10 -4 10 -10z m-11843 -667 c-2 -16
-4 -5 -4 22 0 28 2 40 4 28 2 -13 2 -35 0 -50z m25 -66 c-3 -45 -8 -66 -16
-64 -6 2 -9 13 -8 23 2 10 6 55 10 99 4 64 7 73 12 44 3 -19 4 -65 2 -102z
m8053 -52 c205 -54 333 -271 281 -475 -19 -73 -104 -257 -160 -344 -114 -178
-290 -283 -459 -274 -69 3 -147 31 -153 54 -2 5 11 18 29 29 18 11 45 45 61
74 25 47 29 65 29 135 0 73 -4 92 -46 196 -59 149 -70 195 -65 277 13 231 247
389 483 328z m-2243 -97 c-7 -7 -12 -8 -12 -2 0 14 12 26 19 19 2 -3 -1 -11
-7 -17z m-85 -35 c-3 -10 -5 -2 -5 17 0 19 2 27 5 18 2 -10 2 -26 0 -35z
m7233 32 c0 -2 -7 -5 -15 -9 -9 -3 -15 0 -15 9 0 9 6 12 15 9 8 -4 15 -7 15
-9z m-12970 -26 c0 -10 -4 -19 -10 -19 -5 0 -10 12 -10 26 0 14 4 23 10 19 6
-3 10 -15 10 -26z m5858 9 c-2 -12 -10 -23 -18 -25 -12 -4 -13 -3 -1 5 8 6 11
17 8 26 -4 9 -2 16 4 16 6 0 9 -10 7 -22z m-5993 -47 c3 -5 1 -12 -5 -16 -5
-3 -10 1 -10 9 0 18 6 21 15 7z m5998 -32 c6 -4 4 -23 -5 -50 l-15 -44 1 63
c0 34 3 57 5 50 2 -7 8 -16 14 -19z m-31 -31 c-7 -7 -12 -8 -12 -2 0 14 12 26
19 19 2 -3 -1 -11 -7 -17z m-5882 -2 c0 -3 -4 -8 -10 -11 -5 -3 -10 -1 -10 4
0 6 5 11 10 11 6 0 10 -2 10 -4z m4960 -55 c-11 -21 -40 -29 -40 -12 0 9 43
41 48 36 2 -2 -1 -13 -8 -24z m-128 -63 c-9 -9 -12 -7 -12 12 0 19 3 21 12 12
9 -9 9 -15 0 -24z m68 2 c0 -5 -5 -10 -11 -10 -5 0 -7 5 -4 10 3 6 8 10 11 10
2 0 4 -4 4 -10z m971 -31 l-10 -24 0 26 c-1 14 2 29 6 33 12 12 14 -9 4 -35z
m-1041 -28 c-13 -11 -28 -17 -33 -14 -11 6 23 32 43 32 10 1 7 -6 -10 -18z
m-4860 -20 c0 -10 -7 -34 -15 -52 l-14 -34 -1 53 c0 40 4 52 15 52 8 0 15 -8
15 -19z m-66 -7 c10 -25 7 -34 -9 -34 -9 0 -15 9 -15 25 0 28 15 34 24 9z
m5936 -51 c-11 -17 -11 -17 -6 0 3 10 7 26 7 35 1 15 2 15 6 0 2 -10 -1 -25
-7 -35z m-1320 8 c0 -21 -59 -83 -72 -75 -4 3 -1 12 7 20 8 9 15 19 15 24 0 8
39 50 47 50 2 0 3 -8 3 -19z m-4523 -43 c-3 -7 -5 -2 -5 12 0 14 2 19 5 13 2
-7 2 -19 0 -25z m-37 -22 c0 -8 3 -22 6 -31 5 -11 -2 -9 -20 8 -31 29 -33 37
-6 37 11 0 20 -6 20 -14z m-50 -31 c14 -16 10 -18 -14 -9 -9 3 -16 10 -16 15
0 14 16 11 30 -6z m4815 -25 c3 -5 1 -10 -4 -10 -6 0 -11 5 -11 10 0 6 2 10 4
10 3 0 8 -4 11 -10z m-4824 -29 c11 -27 -6 -19 -22 11 -8 16 -8 19 2 16 6 -2
16 -14 20 -27z m89 -11 c0 -5 -12 -10 -27 -9 -25 0 -26 1 -8 9 27 12 35 12 35
0z m4522 -58 c-7 -2 -12 -10 -12 -17 0 -8 -7 -11 -21 -8 -18 5 -20 2 -17 -23
3 -25 -1 -29 -24 -32 -15 -2 -29 -11 -31 -20 -3 -9 -4 16 -4 56 0 69 11 98 27
73 5 -9 10 -8 20 3 7 9 16 13 21 10 5 -3 9 0 9 7 0 6 10 -1 22 -16 15 -20 18
-30 10 -33z m56 36 c20 -20 13 -28 -13 -16 -14 6 -25 15 -25 20 0 12 24 10 38
-4z m-4631 -40 c-3 -8 -6 -5 -6 6 -1 11 2 17 5 13 3 -3 4 -12 1 -19z m-60 -23
c-7 -16 -47 -21 -47 -5 0 6 9 10 20 10 11 0 20 5 20 12 0 6 3 9 6 5 4 -3 4
-13 1 -22z m-167 -11 c0 -8 5 -12 10 -9 6 4 10 -14 9 -47 l-1 -53 -9 44 c-5
25 -13 49 -19 55 -13 13 -13 39 0 31 6 -3 10 -13 10 -21z m80 4 c0 -6 7 -19
16 -29 10 -11 12 -19 5 -24 -6 -3 -11 1 -11 10 0 8 -7 18 -15 21 -17 7 -21 34
-5 34 6 0 10 -5 10 -12z m4815 -18 c3 -5 1 -10 -4 -10 -6 0 -11 5 -11 10 0 6
2 10 4 10 3 0 8 -4 11 -10z m-4931 -16 c9 -22 8 -24 -9 -18 -8 4 -15 12 -15
20 0 19 16 18 24 -2z m4851 -14 c3 -5 1 -10 -4 -10 -6 0 -11 5 -11 10 0 6 2
10 4 10 3 0 8 -4 11 -10z m-4645 -22 c0 -18 -2 -20 -9 -8 -6 8 -7 18 -5 22 9
14 14 9 14 -14z m4624 -25 c10 -26 0 -25 -18 1 -13 20 -13 24 -2 20 8 -3 17
-13 20 -21z m-4674 2 c0 -8 -4 -15 -10 -15 -5 0 -10 7 -10 15 0 8 5 15 10 15
6 0 10 -7 10 -15z m4558 -3 c2 -7 -3 -12 -12 -12 -9 0 -16 7 -16 16 0 17 22
14 28 -4z m-4721 -49 c-3 -10 -5 -4 -5 12 0 17 2 24 5 18 2 -7 2 -21 0 -30z
m103 1 c0 -14 -4 -23 -10 -19 -5 3 -10 15 -10 26 0 10 5 19 10 19 6 0 10 -12
10 -26z m27 -6 c-3 -7 -5 -2 -5 12 0 14 2 19 5 13 2 -7 2 -19 0 -25z m4605
-14 c-6 -11 -11 -13 -16 -5 -4 6 -2 11 3 11 6 0 12 10 12 23 1 16 3 17 6 5 2
-10 0 -25 -5 -34z m-4662 5 c0 -5 -4 -9 -10 -9 -5 0 -10 7 -10 16 0 8 5 12 10
9 6 -3 10 -10 10 -16z m13 -67 c-3 -12 -9 -22 -14 -22 -5 0 -3 11 3 25 13 30
20 28 11 -3z m-66 -39 c-3 -10 -5 -4 -5 12 0 17 2 24 5 18 2 -7 2 -21 0 -30z
m-47 12 c0 -8 -4 -15 -10 -15 -5 0 -10 7 -10 15 0 8 5 15 10 15 6 0 10 -7 10
-15z m98 -52 c2 -8 -5 -13 -17 -13 -12 0 -21 6 -21 16 0 18 31 15 38 -3z
m4642 -18 c0 -19 -4 -35 -10 -35 -11 0 -14 53 -3 63 11 12 13 8 13 -28z
m-4710 6 c0 -11 5 -23 10 -26 6 -3 10 -12 10 -18 -1 -17 -40 32 -40 49 0 8 5
14 10 14 6 0 10 -9 10 -19z m125 9 c3 -5 1 -10 -4 -10 -6 0 -11 5 -11 10 0 6
2 10 4 10 3 0 8 -4 11 -10z m-25 -40 c0 -5 -2 -10 -4 -10 -3 0 -8 5 -11 10 -3
6 -1 10 4 10 6 0 11 -4 11 -10z m7 -52 c-3 -7 -5 -2 -5 12 0 14 2 19 5 13 2
-7 2 -19 0 -25z m-203 14 c3 -5 2 -18 -1 -30 -4 -17 -9 -20 -18 -12 -7 6 -11
20 -8 30 6 21 18 26 27 12z m4461 -20 c0 -18 -20 -15 -23 4 -3 10 1 15 10 12
7 -3 13 -10 13 -16z m-4376 -101 c-15 -33 -29 -41 -29 -17 0 8 5 16 12 18 8 3
12 22 11 49 0 43 0 43 9 12 8 -23 7 -39 -3 -62z m51 67 c0 -18 -2 -20 -9 -8
-6 8 -7 18 -5 22 9 14 14 9 14 -14z m227 -20 c-3 -7 -5 -2 -5 12 0 14 2 19 5
13 2 -7 2 -19 0 -25z m-180 -4 c-3 -3 -12 -4 -19 -1 -8 3 -5 6 6 6 11 1 17 -2
13 -5z m150 -66 c-3 -7 -5 -2 -5 12 0 14 2 19 5 13 2 -7 2 -19 0 -25z m-379 3
c3 -8 -1 -12 -9 -9 -7 2 -15 10 -17 17 -3 8 1 12 9 9 7 -2 15 -10 17 -17z
m172 -11 c0 -5 -5 -10 -11 -10 -5 0 -7 5 -4 10 3 6 8 10 11 10 2 0 4 -4 4 -10z
m4650 -30 c0 -5 -2 -10 -4 -10 -3 0 -8 5 -11 10 -3 6 -1 10 4 10 6 0 11 -4 11
-10z m7987 -48 c-14 -17 -22 0 -12 26 5 14 7 14 15 2 5 -9 4 -20 -3 -28z
m-12927 -28 c0 -14 -4 -23 -10 -19 -5 3 -10 15 -10 26 0 10 5 19 10 19 6 0 10
-12 10 -26z m170 -18 c0 -11 -43 -76 -50 -76 -8 0 -20 35 -20 60 1 12 3 11 11
-2 13 -24 25 -23 32 2 4 17 27 30 27 16z m-90 -36 c0 -16 -3 -30 -7 -30 -5 0
-8 14 -8 30 0 17 3 30 8 30 4 0 7 -13 7 -30z m4330 -12 c0 -10 -4 -18 -10 -18
-5 0 -10 15 -10 33 0 24 3 28 10 17 5 -8 10 -23 10 -32z m-4443 -5 c-3 -10 -5
-4 -5 12 0 17 2 24 5 18 2 -7 2 -21 0 -30z m4500 -5 c-3 -7 -5 -2 -5 12 0 14
2 19 5 13 2 -7 2 -19 0 -25z m-4267 7 c0 -8 -4 -15 -10 -15 -5 0 -10 7 -10 15
0 8 5 15 10 15 6 0 10 -7 10 -15z m-153 -27 c-3 -8 -6 -5 -6 6 -1 11 2 17 5
13 3 -3 4 -12 1 -19z m3463 -22 c0 -11 -19 -15 -25 -6 -3 5 1 10 9 10 9 0 16
-2 16 -4z m-3465 -16 c3 -5 1 -10 -4 -10 -6 0 -11 5 -11 10 0 6 2 10 4 10 3 0
8 -4 11 -10z m84 -24 c9 -11 6 -15 -19 -18 -19 -3 -30 0 -30 7 0 27 30 34 49
11z m3437 1 c4 -4 4 -10 -1 -14 -4 -5 -10 -2 -12 5 -6 15 -30 16 -35 0 -3 -8
-10 -8 -26 4 -21 14 -20 15 23 13 24 0 48 -4 51 -8z m41 -19 c-3 -8 -6 -5 -6
6 -1 11 2 17 5 13 3 -3 4 -12 1 -19z m58 2 c3 -5 1 -10 -4 -10 -6 0 -11 5 -11
10 0 6 2 10 4 10 3 0 8 -4 11 -10z m-99 -15 c10 -8 14 -15 8 -15 -5 0 -19 7
-30 15 -10 8 -14 15 -8 15 5 0 19 -7 30 -15z m-3516 -4 c0 -6 -4 -13 -10 -16
-5 -3 -10 1 -10 9 0 9 5 16 10 16 6 0 10 -4 10 -9z m80 -37 c0 -8 -4 -12 -10
-9 -5 3 -10 10 -10 16 0 5 5 9 10 9 6 0 10 -7 10 -16z m3541 -11 c27 -14 47
-28 45 -30 -5 -5 -106 45 -106 52 0 9 12 5 61 -22z m-3604 -15 c-3 -7 -5 -2
-5 12 0 14 2 19 5 13 2 -7 2 -19 0 -25z m93 -23 c0 -14 -4 -25 -10 -25 -5 0
-10 11 -10 25 0 14 5 25 10 25 6 0 10 -11 10 -25z m4130 -5 c0 -5 -6 -10 -14
-10 -8 0 -23 -3 -33 -7 -16 -6 -16 -5 -4 10 15 18 51 23 51 7z m8390 -35 c0
-8 -9 -15 -20 -15 -22 0 -27 15 -7 23 21 9 27 7 27 -8z m-12590 -57 c0 -13
-23 -5 -28 10 -2 7 2 10 12 6 9 -3 16 -11 16 -16z m12350 -68 c0 -5 -2 -10 -4
-10 -3 0 -8 5 -11 10 -3 6 -1 10 4 10 6 0 11 -4 11 -10z m-12422 -47 c-10 -2
-26 -2 -35 0 -10 3 -2 5 17 5 19 0 27 -2 18 -5z m12272 -69 c0 -8 -4 -12 -10
-9 -5 3 -10 10 -10 16 0 5 5 9 10 9 6 0 10 -7 10 -16z m76 -21 c-10 -10 -19 5
-10 18 6 11 8 11 12 0 2 -7 1 -15 -2 -18z m-146 -33 c0 -5 -5 -10 -11 -10 -5
0 -7 5 -4 10 3 6 8 10 11 10 2 0 4 -4 4 -10z m-11925 -140 c3 -5 1 -10 -4 -10
-6 0 -11 5 -11 10 0 6 2 10 4 10 3 0 8 -4 11 -10z m11848 -44 c18 -14 23 -36
8 -36 -6 0 -13 5 -16 10 -3 6 -15 10 -27 10 -17 0 -18 2 -8 15 15 18 20 18 43
1z m-126 -208 c-3 -7 -5 -2 -5 12 0 14 2 19 5 13 2 -7 2 -19 0 -25z m-127 -8
c-20 -13 -33 -13 -25 0 3 6 14 10 23 10 15 0 15 -2 2 -10z m-145 -140 c3 -5 1
-10 -4 -10 -6 0 -11 5 -11 10 0 6 2 10 4 10 3 0 8 -4 11 -10z m-115 -190 c5 0
10 5 10 10 0 6 7 10 15 10 8 0 15 -4 15 -10 0 -5 -5 -10 -11 -10 -6 0 -19 -10
-29 -22 l-18 -23 -10 35 c-10 39 -3 65 9 32 5 -12 13 -22 19 -22z m-46 -19 c5
-29 4 -32 -9 -21 -16 13 -20 42 -8 53 8 9 9 8 17 -32z m26 -76 c0 -8 4 -15 8
-15 5 0 9 -6 9 -12 0 -7 4 -22 8 -33 l8 -20 -16 20 c-9 11 -17 26 -17 33 0 15
-12 16 -28 0 -6 -6 -15 -8 -19 -3 -5 4 -2 10 5 12 6 3 12 11 12 19 0 8 7 14
15 14 8 0 15 -7 15 -15z m-103 -11 c-3 -3 -12 -4 -19 -1 -8 3 -5 6 6 6 11 1
17 -2 13 -5z m35 -146 c-6 -6 -15 -8 -19 -4 -4 4 -1 11 7 16 19 12 27 3 12
-12z m33 -8 c3 -5 1 -10 -4 -10 -6 0 -11 5 -11 10 0 6 2 10 4 10 3 0 8 -4 11
-10z m67 -25 c7 -15 17 -24 25 -21 8 4 13 -3 13 -18 0 -14 6 -26 13 -29 9 -3
9 -7 0 -17 -8 -9 -12 -7 -18 9 -7 24 -25 28 -25 6 0 -8 -4 -15 -10 -15 -5 0
-10 9 -10 19 0 11 -7 26 -15 35 -18 17 -20 30 -3 20 8 -5 9 0 6 14 -8 30 10
28 24 -3z m-149 -44 c-3 -12 -9 -21 -14 -21 -12 0 -11 14 2 27 6 6 8 17 4 23
-6 9 -9 9 -16 -1 -4 -7 -11 -11 -14 -7 -3 3 2 13 11 23 17 16 18 16 25 -3 4
-11 5 -29 2 -41z m32 -19 c-3 -3 -11 0 -18 7 -9 10 -8 11 6 5 10 -3 15 -9 12
-12z m60 9 c3 -5 1 -12 -4 -15 -5 -3 -11 1 -15 9 -6 16 9 21 19 6z m-75 -46
c0 -9 -6 -12 -15 -9 -8 4 -12 10 -9 15 8 14 24 10 24 -6z m-340 -5 c0 -5 -2
-10 -4 -10 -3 0 -8 5 -11 10 -3 6 -1 10 4 10 6 0 11 -4 11 -10z m456 -25 c-4
-14 -12 -25 -18 -25 -9 0 -9 3 0 12 7 7 12 21 12 32 0 10 3 17 6 13 4 -3 4
-18 0 -32z m44 4 c-7 -11 -9 -27 -6 -34 3 -8 1 -17 -4 -20 -6 -4 -10 2 -10 12
0 30 12 63 22 63 5 0 4 -9 -2 -21z m54 -4 c4 -10 -1 -15 -15 -15 -17 0 -18 2
-7 15 16 18 15 18 22 0z m-254 -10 c0 -8 -4 -15 -10 -15 -5 0 -10 7 -10 15 0
8 5 15 10 15 6 0 10 -7 10 -15z m104 -30 c11 -19 16 -38 12 -43 -10 -10 -46
36 -46 59 0 29 13 23 34 -16z m-130 -29 c-3 -9 -10 -16 -15 -16 -6 0 -5 9 1
21 13 24 24 20 14 -5z m46 15 c0 -5 -6 -14 -14 -20 -12 -10 -13 -8 -9 8 5 21
23 30 23 12z m197 -53 c-3 -7 -5 -2 -5 12 0 14 2 19 5 13 2 -7 2 -19 0 -25z
m-51 10 c-14 -48 -17 -51 -28 -40 -9 9 -7 17 7 32 21 23 26 25 21 8z m-66 -40
c0 -5 -7 -8 -15 -8 -10 0 -15 10 -15 27 0 26 1 26 15 7 8 -10 15 -22 15 -26z
m110 -9 c0 -5 -4 -9 -10 -9 -5 0 -10 7 -10 16 0 8 5 12 10 9 6 -3 10 -10 10
-16z m-30 -24 c0 -8 -2 -15 -4 -15 -2 0 -6 7 -10 15 -3 8 -1 15 4 15 6 0 10
-7 10 -15z m-523 -27 c-3 -7 -5 -2 -5 12 0 14 2 19 5 13 2 -7 2 -19 0 -25z
m408 22 c-3 -5 -12 -10 -18 -10 -7 0 -6 4 3 10 19 12 23 12 15 0z m74 -4 c10
-12 8 -13 -8 -9 -12 3 -18 9 -15 14 7 12 10 11 23 -5z m-442 -48 c-3 -7 -5 -2
-5 12 0 14 2 19 5 13 2 -7 2 -19 0 -25z m418 22 c3 -5 1 -10 -4 -10 -6 0 -11
5 -11 10 0 6 2 10 4 10 3 0 8 -4 11 -10z m-139 -47 c-11 -11 -17 4 -9 23 7 18
8 18 11 1 2 -10 1 -21 -2 -24z m50 10 c-10 -10 -19 5 -10 18 6 11 8 11 12 0 2
-7 1 -15 -2 -18z m139 17 c3 -5 -1 -10 -9 -10 -9 0 -16 5 -16 10 0 6 4 10 9
10 6 0 13 -4 16 -10z m72 4 c-3 -3 -12 -4 -19 -1 -8 3 -5 6 6 6 11 1 17 -2 13
-5z m4 -24 c10 -6 19 -14 19 -19 0 -18 -57 -66 -80 -68 l-25 -1 27 11 c36 14
56 51 38 72 -15 17 -7 19 21 5z m94 0 c4 -6 -7 -10 -27 -9 -27 0 -30 2 -13 9
27 12 33 12 40 0z m-215 -10 c0 -5 -4 -10 -10 -10 -5 0 -10 5 -10 10 0 6 5 10
10 10 6 0 10 -4 10 -10z m-76 -25 c-4 -8 -10 -15 -15 -15 -4 0 -6 7 -3 15 4 8
10 15 15 15 4 0 6 -7 3 -15z m149 9 c11 -11 -3 -24 -18 -18 -8 4 -12 10 -9 15
6 11 18 12 27 3z m-103 -24 c0 -5 -4 -10 -10 -10 -5 0 -10 5 -10 10 0 6 5 10
10 10 6 0 10 -4 10 -10z m-174 -27 c-10 -10 -19 5 -10 18 6 11 8 11 12 0 2 -7
1 -15 -2 -18z m179 -20 c-27 -19 -38 -16 -17 5 9 11 21 17 26 14 5 -3 1 -11
-9 -19z m58 -18 c-7 -21 -13 -19 -13 6 0 11 4 18 10 14 5 -3 7 -12 3 -20z
m-449 -1 c3 -8 2 -12 -4 -9 -6 3 -10 10 -10 16 0 14 7 11 14 -7z"/>
<path d="M7443 9525 c0 -22 2 -30 4 -17 2 12 2 30 0 40 -3 9 -5 -1 -4 -23z"/>
<path d="M6694 9415 c7 -18 -20 -21 -27 -2 -4 9 -7 9 -15 -1 -5 -7 -16 -10
-25 -6 -10 3 -17 1 -17 -5 0 -6 5 -11 11 -11 5 0 7 -5 3 -12 -5 -8 0 -9 14 -6
27 7 28 -3 3 -26 -15 -13 -20 -14 -24 -4 -3 7 -6 8 -6 2 -1 -6 6 -17 14 -24
10 -8 15 -9 15 -2 0 6 8 19 18 29 9 10 30 33 46 51 29 32 29 32 7 32 -16 0
-21 -4 -17 -15z"/>
<path d="M6735 9360 c-3 -6 1 -7 9 -4 18 7 21 14 7 14 -6 0 -13 -4 -16 -10z"/>
<path d="M7106 9287 c3 -10 9 -15 12 -12 3 3 0 11 -7 18 -10 9 -11 8 -5 -6z"/>
<path d="M6582 9225 c-9 -20 -9 -23 3 -18 8 3 15 14 15 24 0 25 -5 24 -18 -6z"/>
<path d="M4859 4039 c-4 -96 -8 -112 -39 -173 -52 -104 -134 -168 -257 -202
-76 -21 -541 -31 -689 -15 -203 22 -306 87 -380 242 l-39 81 -7 -40 c-11 -67
-3 -204 14 -237 8 -16 19 -45 23 -62 3 -18 11 -33 16 -33 5 0 9 -6 9 -14 0 -8
7 -16 15 -20 8 -3 15 -14 15 -25 0 -19 36 -48 53 -43 4 1 12 -9 17 -22 5 -13
19 -27 30 -31 12 -4 30 -15 40 -25 12 -12 26 -16 41 -13 14 4 26 0 33 -9 6 -9
27 -18 46 -21 60 -10 114 -25 148 -42 24 -12 46 -15 81 -10 38 5 52 3 65 -11
10 -9 21 -13 24 -8 10 13 208 18 216 5 9 -14 63 -14 71 -1 3 6 42 10 86 10 51
0 78 -4 74 -10 -3 -5 -1 -10 4 -10 6 0 11 5 11 11 0 6 7 8 16 5 10 -4 22 0 28
10 12 15 15 15 44 0 41 -21 52 -20 52 3 0 22 50 51 87 51 14 0 23 6 23 15 0 9
10 19 23 24 20 8 23 15 19 45 -4 37 5 45 26 24 17 -17 30 0 34 47 2 28 7 39
17 37 9 -2 12 5 9 23 -3 14 -1 25 4 25 5 0 13 11 18 25 5 14 16 25 25 25 19 0
19 14 0 44 -20 31 -29 100 -16 125 8 14 8 22 0 26 -6 4 -8 13 -5 21 3 8 0 14
-8 14 -8 0 -11 10 -8 30 4 26 1 30 -19 31 -13 0 -18 3 -12 6 10 3 10 10 2 24
-5 11 -8 23 -5 28 3 5 -8 11 -25 15 -26 5 -30 10 -26 28 4 12 2 27 -2 32 -5 6
-11 20 -13 31 -2 11 -6 -28 -9 -86z"/>
<path d="M6588 3663 c7 -3 16 -2 19 1 4 3 -2 6 -13 5 -11 0 -14 -3 -6 -6z"/>
<path d="M6616 3602 c-3 -5 3 -21 13 -36 15 -23 19 -25 25 -11 3 9 6 26 5 38
-1 20 -2 20 -9 -3 -8 -24 -8 -24 -9 -2 -1 22 -15 30 -25 14z"/>
<path d="M5036 3554 c-11 -28 -6 -38 9 -18 8 10 15 22 15 27 0 13 -18 7 -24
-9z"/>
<path d="M5760 3535 c0 -8 5 -15 10 -15 6 0 10 7 10 15 0 8 -4 15 -10 15 -5 0
-10 -7 -10 -15z"/>
<path d="M6535 3539 c-4 -6 -5 -12 -2 -15 2 -3 7 2 10 11 7 17 1 20 -8 4z"/>
<path d="M5240 3530 c0 -5 5 -10 10 -10 6 0 10 5 10 10 0 6 -4 10 -10 10 -5 0
-10 -4 -10 -10z"/>
<path d="M5070 3500 c0 -5 5 -10 10 -10 6 0 10 5 10 10 0 6 -4 10 -10 10 -5 0
-10 -4 -10 -10z"/>
<path d="M5100 3470 c0 -11 7 -20 15 -20 8 0 15 9 15 20 0 11 -7 20 -15 20 -8
0 -15 -9 -15 -20z"/>
<path d="M5600 3470 c0 -11 -4 -20 -10 -20 -5 0 -10 -6 -10 -13 0 -8 12 -14
30 -14 17 0 30 4 30 9 0 4 -4 8 -10 8 -5 0 -10 11 -10 25 0 14 -4 25 -10 25
-5 0 -10 -9 -10 -20z"/>
<path d="M5081 3433 c0 -17 4 -35 10 -38 15 -10 24 2 12 17 -6 7 -13 22 -16
33 -3 13 -5 9 -6 -12z"/>
<path d="M5920 3446 c0 -9 7 -16 16 -16 9 0 14 5 12 12 -6 18 -28 21 -28 4z"/>
<path d="M5040 3425 c0 -9 6 -12 15 -9 8 4 15 10 15 15 0 5 -7 9 -15 9 -8 0
-15 -7 -15 -15z"/>
<path d="M5130 3431 c0 -6 5 -13 10 -16 6 -3 10 1 10 9 0 9 -4 16 -10 16 -5 0
-10 -4 -10 -9z"/>
<path d="M5537 3392 c-3 -15 -4 -29 -2 -31 8 -8 25 12 25 29 0 30 -17 32 -23
2z"/>
<path d="M5138 3393 c-10 -2 -18 -12 -18 -20 0 -9 8 -22 18 -29 10 -8 12 -13
5 -14 -7 0 -13 -10 -13 -22 l0 -22 16 22 c8 12 24 22 35 22 12 0 19 7 19 19 0
14 -6 17 -26 13 -23 -4 -25 -2 -19 17 3 11 5 20 3 20 -2 -1 -11 -3 -20 -6z"/>
<path d="M4764 3355 c-8 -19 5 -37 19 -28 7 4 20 6 30 5 11 -2 17 3 17 17 0
17 -6 21 -30 21 -18 0 -33 -6 -36 -15z"/>
<path d="M5474 3356 c-4 -10 -2 -22 4 -28 8 -8 13 -7 18 6 4 10 2 22 -4 28 -8
8 -13 7 -18 -6z"/>
<path d="M5083 3325 c0 -22 2 -30 4 -17 2 12 2 30 0 40 -3 9 -5 -1 -4 -23z"/>
<path d="M4630 3305 c0 -10 7 -15 18 -13 21 4 19 22 -2 26 -10 2 -16 -3 -16
-13z"/>
<path d="M4178 3293 c7 -3 16 -2 19 1 4 3 -2 6 -13 5 -11 0 -14 -3 -6 -6z"/>
<path d="M4710 3290 c0 -5 5 -10 10 -10 6 0 10 5 10 10 0 6 -4 10 -10 10 -5 0
-10 -4 -10 -10z"/>
<path d="M5450 3274 c0 -8 5 -12 10 -9 6 3 10 10 10 16 0 5 -4 9 -10 9 -5 0
-10 -7 -10 -16z"/>
<path d="M5107 3244 c-12 -12 -8 -24 8 -24 8 0 15 -7 15 -15 0 -8 5 -15 10
-15 6 0 10 -8 10 -17 0 -15 2 -16 10 -3 6 10 6 16 0 18 -6 2 -10 8 -10 13 0 5
3 8 8 7 4 -2 7 2 7 7 0 6 -7 9 -14 8 -8 -1 -20 5 -26 13 -6 8 -14 12 -18 8z"/>
<path d="M5330 3230 c0 -5 5 -10 10 -10 6 0 10 5 10 10 0 6 -4 10 -10 10 -5 0
-10 -4 -10 -10z"/>
<path d="M5190 3214 c0 -8 5 -12 10 -9 6 3 10 10 10 16 0 5 -4 9 -10 9 -5 0
-10 -7 -10 -16z"/>
<path d="M5285 3220 c-3 -5 1 -20 9 -32 16 -22 16 -22 16 10 0 31 -12 42 -25
22z"/>
<path d="M5081 3204 c0 -11 3 -14 6 -6 3 7 2 16 -1 19 -3 4 -6 -2 -5 -13z"/>
<path d="M5377 3213 c-12 -11 -8 -23 8 -23 8 0 15 7 15 15 0 16 -12 20 -23 8z"/>
<path d="M5100 3181 c0 -12 31 -43 37 -37 9 9 -9 46 -23 46 -8 0 -14 -4 -14
-9z"/>
<path d="M5180 3182 c0 -19 12 -42 22 -42 14 0 5 43 -9 48 -7 2 -13 -1 -13 -6z"/>
<path d="M5336 3181 c-4 -7 -5 -15 -2 -18 9 -9 19 4 14 18 -4 11 -6 11 -12 0z"/>
<path d="M5250 3029 c0 -11 5 -17 10 -14 6 3 10 13 10 21 0 8 -4 14 -10 14 -5
0 -10 -9 -10 -21z"/>
<path d="M4820 2915 c0 -8 5 -15 10 -15 6 0 10 7 10 15 0 8 -4 15 -10 15 -5 0
-10 -7 -10 -15z"/>
<path d="M4462 2450 c0 -14 2 -19 5 -12 2 6 2 18 0 25 -3 6 -5 1 -5 -13z"/>
<path d="M4420 2361 c0 -6 5 -13 10 -16 6 -3 10 1 10 9 0 9 -4 16 -10 16 -5 0
-10 -4 -10 -9z"/>
<path d="M4482 2335 c0 -36 12 -53 23 -35 8 13 -4 70 -15 70 -4 0 -8 -16 -8
-35z"/>
<path d="M4450 2300 c0 -5 5 -10 10 -10 6 0 10 5 10 10 0 6 -4 10 -10 10 -5 0
-10 -4 -10 -10z"/>
<path d="M3160 2291 c0 -5 7 -12 16 -15 14 -5 15 -4 4 9 -14 17 -20 19 -20 6z"/>
<path d="M3200 2260 c0 -5 5 -10 11 -10 5 0 7 5 4 10 -3 6 -8 10 -11 10 -2 0
-4 -4 -4 -10z"/>
<path d="M3230 2244 c0 -5 9 -17 20 -27 11 -9 20 -13 20 -8 0 4 -9 16 -20 26
-11 10 -20 14 -20 9z"/>
<path d="M3297 2243 c-12 -11 -8 -23 8 -23 8 0 15 7 15 15 0 16 -12 20 -23 8z"/>
<path d="M3595 2120 c-3 -5 -4 -14 0 -20 8 -13 35 -1 35 17 0 13 -2 13 -17 2
-11 -10 -14 -10 -9 -1 4 6 5 12 2 12 -3 0 -8 -4 -11 -10z"/>
<path d="M3737 2084 c-3 -16 0 -28 10 -31 19 -8 22 -2 16 30 -7 34 -19 35 -26
1z"/>
<path d="M5142 2833 c5 -25 28 -28 28 -4 0 12 -6 21 -16 21 -9 0 -14 -7 -12
-17z"/>
<path d="M5194 12479 c-8 -13 27 -40 43 -34 7 2 10 -2 6 -10 -3 -9 4 -18 18
-24 13 -5 20 -10 14 -10 -22 -2 70 -53 127 -72 45 -14 81 -18 137 -15 72 3
145 27 163 51 5 6 8 6 8 0 0 -5 11 7 25 27 14 20 25 44 25 52 0 8 5 18 10 21
6 3 10 11 10 17 0 6 -10 2 -22 -9 -50 -46 -143 -73 -247 -73 -70 0 -205 33
-265 65 -28 15 -48 20 -52 14z"/>
<path d="M7760 12250 c-18 -11 -4 -40 20 -40 13 0 20 7 20 19 0 22 -21 33 -40
21z"/>
<path d="M7520 12100 c-19 -6 -9 -8 38 -9 35 -1 62 3 62 9 0 12 -64 12 -100 0z"/>
<path d="M2151 12074 c0 -11 3 -14 6 -6 3 7 2 16 -1 19 -3 4 -6 -2 -5 -13z"/>
<path d="M7448 12083 c6 -2 18 -2 25 0 6 3 1 5 -13 5 -14 0 -19 -2 -12 -5z"/>
<path d="M7328 12063 c7 -3 16 -2 19 1 4 3 -2 6 -13 5 -11 0 -14 -3 -6 -6z"/>
<path d="M2136 12035 c-9 -26 -7 -32 5 -12 6 10 9 21 6 23 -2 3 -7 -2 -11 -11z"/>
<path d="M5070 10900 c0 -5 5 -10 11 -10 5 0 7 5 4 10 -3 6 -8 10 -11 10 -2 0
-4 -4 -4 -10z"/>
<path d="M4620 10867 c-39 -36 -124 -59 -254 -69 -154 -12 -601 -4 -666 13
-25 6 -53 12 -63 14 -9 2 -22 7 -27 10 -6 3 -7 -1 -4 -9 3 -9 11 -14 17 -13 6
1 13 -8 15 -21 2 -12 8 -20 13 -17 5 4 9 2 9 -3 0 -10 22 -20 120 -50 116 -36
181 -45 340 -43 85 1 166 3 180 6 14 2 43 6 65 9 23 2 67 14 100 25 32 11 61
19 63 16 7 -7 92 67 87 75 -3 5 -1 11 5 15 6 4 8 11 4 16 -3 5 0 16 6 24 16
19 9 19 -10 2z"/>
<path d="M4650 10870 c0 -5 5 -10 10 -10 6 0 10 5 10 10 0 6 -4 10 -10 10 -5
0 -10 -4 -10 -10z"/>
<path d="M4924 10778 c-131 -135 -234 -260 -366 -448 -89 -127 -297 -504 -285
-517 4 -3 23 5 44 17 219 132 430 234 653 316 253 93 315 124 383 187 28 27
36 70 16 97 -9 13 -10 12 -5 -2 3 -10 1 -18 -4 -18 -6 0 -10 -8 -11 -17 0 -14
-3 -13 -12 5 -7 16 -7 26 0 30 5 4 13 19 16 34 7 24 4 27 -25 30 -28 3 -34 8
-38 33 -4 26 -10 30 -42 33 -36 3 -36 4 -43 55 -8 58 -16 67 -63 67 -18 0 -31
4 -27 9 8 14 -16 62 -29 58 -6 -2 -13 -19 -16 -38 -8 -54 -18 -21 -15 51 1 36
3 70 5 75 6 23 -1 37 -14 32 -8 -3 -16 -1 -18 4 -2 5 -48 -36 -104 -93z m86
37 c11 -13 10 -14 -4 -9 -9 3 -16 10 -16 15 0 13 6 11 20 -6z m178 -178 c3
-12 -3 -17 -22 -17 -28 0 -29 1 -20 25 8 20 38 15 42 -8z"/>
<path d="M1680 10779 c0 -11 5 -17 10 -14 6 3 10 13 10 21 0 8 -4 14 -10 14
-5 0 -10 -9 -10 -21z"/>
<path d="M5453 10483 c-3 -10 -8 -22 -10 -28 -3 -5 3 -1 11 9 16 20 21 36 11
36 -3 0 -8 -8 -12 -17z"/>
<path d="M9003 10470 c3 -11 0 -20 -6 -20 -6 0 -8 -3 -5 -6 9 -8 48 19 48 33
0 7 -10 13 -21 13 -16 0 -20 -5 -16 -20z"/>
<path d="M5413 10414 c-6 -13 -7 -24 -3 -24 9 0 25 39 18 45 -2 2 -8 -7 -15
-21z"/>
<path d="M13960 10082 c0 -12 3 -12 15 -2 8 7 15 13 15 15 0 1 -7 2 -15 2 -8
0 -15 -7 -15 -15z"/>
<path d="M13930 10080 c-8 -5 -12 -12 -9 -15 4 -3 12 1 19 10 14 17 11 19 -10
5z"/>
<path d="M13961 10031 c-7 -5 -12 -14 -9 -21 2 -7 10 -4 22 9 19 21 12 28 -13
12z"/>
<path d="M13910 9979 c0 -5 5 -7 10 -4 6 3 10 8 10 11 0 2 -4 4 -10 4 -5 0
-10 -5 -10 -11z"/>
<path d="M14000 9940 c0 -19 3 -21 12 -12 9 9 9 15 0 24 -9 9 -12 7 -12 -12z"/>
<path d="M14141 9884 c0 -11 3 -14 6 -6 3 7 2 16 -1 19 -3 4 -6 -2 -5 -13z"/>
<path d="M5280 8600 c0 -8 5 -22 10 -30 9 -13 10 -13 10 0 0 8 -5 22 -10 30
-9 13 -10 13 -10 0z"/>
<path d="M3943 8101 c-10 -16 -9 -22 3 -32 20 -16 38 2 29 30 -8 26 -17 27
-32 2z"/>
<path d="M4042 8078 c7 -20 48 -23 48 -4 0 11 -9 16 -26 16 -16 0 -24 -5 -22
-12z"/>
<path d="M1360 7600 c0 -22 5 -40 10 -40 6 0 10 18 10 40 0 22 -4 40 -10 40
-5 0 -10 -18 -10 -40z"/>
<path d="M2385 7232 c-6 -4 -11 -20 -12 -37 -1 -23 1 -26 8 -13 5 10 16 15 24
12 11 -5 15 1 15 20 0 25 -15 33 -35 18z"/>
<path d="M3767 7203 c-10 -9 -8 -33 2 -33 5 0 11 9 14 20 5 20 -3 26 -16 13z"/>
<path d="M2236 7122 c-2 -4 13 -6 35 -4 21 2 39 6 39 8 0 7 -69 4 -74 -4z"/>
<path d="M11826 6745 c4 -8 8 -15 10 -15 2 0 4 7 4 15 0 8 -4 15 -10 15 -5 0
-7 -7 -4 -15z"/>
<path d="M11770 6650 c0 -8 4 -21 9 -29 7 -11 10 -9 16 8 4 13 4 25 1 28 -3 4
-6 0 -6 -8 0 -11 -2 -11 -10 1 -9 13 -10 13 -10 0z"/>
<path d="M1141 5884 c0 -11 3 -14 6 -6 3 7 2 16 -1 19 -3 4 -6 -2 -5 -13z"/>
<path d="M1040 5560 c0 -5 5 -10 10 -10 6 0 10 5 10 10 0 6 -4 10 -10 10 -5 0
-10 -4 -10 -10z"/>
<path d="M990 5125 c0 -8 5 -15 10 -15 6 0 10 7 10 15 0 8 -4 15 -10 15 -5 0
-10 -7 -10 -15z"/>
<path d="M975 4908 c-7 -29 10 -72 26 -63 12 8 11 24 -5 60 l-13 30 -8 -27z"/>
<path d="M11703 4713 c-15 -5 -17 -23 -4 -23 5 0 11 7 15 15 3 8 4 15 3 14 -1
0 -8 -3 -14 -6z"/>
<path d="M11768 4703 c12 -2 32 -2 45 0 12 2 2 4 -23 4 -25 0 -35 -2 -22 -4z"/>
<path d="M11637 4693 c-15 -14 -6 -31 12 -26 12 3 17 11 14 19 -6 15 -16 18
-26 7z"/>
<path d="M11490 4680 c0 -5 5 -10 10 -10 6 0 10 5 10 10 0 6 -4 10 -10 10 -5
0 -10 -4 -10 -10z"/>
<path d="M11946 4671 c-3 -5 1 -11 9 -14 9 -4 12 -1 8 9 -6 16 -10 17 -17 5z"/>
<path d="M891 4484 c0 -11 3 -14 6 -6 3 7 2 16 -1 19 -3 4 -6 -2 -5 -13z"/>
<path d="M12420 4465 c0 -14 5 -25 10 -25 6 0 10 11 10 25 0 14 -4 25 -10 25
-5 0 -10 -11 -10 -25z"/>
<path d="M12444 4429 c-3 -6 -1 -16 5 -22 8 -8 11 -5 11 11 0 24 -5 28 -16 11z"/>
<path d="M13282 4068 c6 -18 28 -21 28 -4 0 9 -7 16 -16 16 -9 0 -14 -5 -12
-12z"/>
<path d="M13180 4015 c0 -8 5 -15 10 -15 6 0 10 7 10 15 0 8 -4 15 -10 15 -5
0 -10 -7 -10 -15z"/>
<path d="M13230 4015 c0 -8 5 -15 10 -15 6 0 10 7 10 15 0 8 -4 15 -10 15 -5
0 -10 -7 -10 -15z"/>
<path d="M13140 4010 c0 -5 5 -10 10 -10 6 0 10 5 10 10 0 6 -4 10 -10 10 -5
0 -10 -4 -10 -10z"/>
<path d="M802 3970 c0 -14 2 -19 5 -12 2 6 2 18 0 25 -3 6 -5 1 -5 -13z"/>
<path d="M760 3930 c0 -11 7 -20 15 -20 8 0 15 9 15 20 0 11 -7 20 -15 20 -8
0 -15 -9 -15 -20z"/>
<path d="M570 3851 c0 -24 21 -61 35 -61 19 0 19 14 0 30 -8 7 -15 19 -15 26
0 8 -4 14 -10 14 -5 0 -10 -4 -10 -9z"/>
<path d="M13280 3823 c0 -41 13 -35 24 10 5 20 3 27 -9 27 -11 0 -15 -11 -15
-37z"/>
<path d="M620 3765 c0 -8 5 -15 10 -15 6 0 10 7 10 15 0 8 -4 15 -10 15 -5 0
-10 -7 -10 -15z"/>
<path d="M13510 3751 c0 -6 5 -13 10 -16 6 -3 10 1 10 9 0 9 -4 16 -10 16 -5
0 -10 -4 -10 -9z"/>
<path d="M570 3693 c0 -6 -3 -18 -6 -27 -3 -9 -1 -16 5 -16 17 0 25 30 12 43
-8 8 -11 8 -11 0z"/>
<path d="M560 3611 c0 -12 5 -21 10 -21 6 0 10 6 10 14 0 8 -4 18 -10 21 -5 3
-10 -3 -10 -14z"/>
<path d="M13720 3620 c0 -5 5 -10 10 -10 6 0 10 5 10 10 0 6 -4 10 -10 10 -5
0 -10 -4 -10 -10z"/>
<path d="M622 3555 c0 -16 2 -22 5 -12 2 9 2 23 0 30 -3 6 -5 -1 -5 -18z"/>
<path d="M508 3550 c-7 -24 -3 -38 8 -28 3 4 4 17 2 30 l-3 23 -7 -25z"/>
<path d="M442 3329 c2 -6 7 -10 11 -10 4 1 16 1 27 1 11 0 20 5 20 10 0 6 -14
10 -31 10 -17 0 -29 -5 -27 -11z"/>
<path d="M386 3278 c-8 -33 -8 -38 8 -38 8 0 16 6 19 14 4 9 14 12 26 9 12 -3
21 -1 21 6 0 6 -9 11 -20 11 -11 0 -20 5 -20 10 0 20 -28 9 -34 -12z"/>
<path d="M470 3290 c0 -5 7 -10 15 -10 8 0 15 5 15 10 0 6 -7 10 -15 10 -8 0
-15 -4 -15 -10z"/>
<path d="M471 3194 c0 -11 3 -14 6 -6 3 7 2 16 -1 19 -3 4 -6 -2 -5 -13z"/>
<path d="M362 3150 c0 -19 2 -27 5 -17 2 9 2 25 0 35 -3 9 -5 1 -5 -18z"/>
<path d="M430 3145 c0 -15 54 -25 72 -14 19 12 1 23 -38 25 -21 0 -34 -4 -34
-11z"/>
<path d="M380 3100 c0 -17 4 -19 28 -14 34 8 36 10 27 23 -3 6 -17 11 -31 11
-17 0 -24 -5 -24 -20z"/>
<path d="M454 3094 c3 -9 6 -25 6 -37 0 -18 2 -19 10 -7 16 24 12 60 -6 60
-11 0 -14 -5 -10 -16z"/>
<path d="M350 3080 c0 -5 5 -10 10 -10 6 0 10 5 10 10 0 6 -4 10 -10 10 -5 0
-10 -4 -10 -10z"/>
<path d="M383 3040 c4 -14 7 -31 7 -38 0 -7 5 -10 10 -7 16 10 12 41 -7 56
-15 13 -16 11 -10 -11z"/>
<path d="M350 2990 c0 -11 5 -20 10 -20 6 0 10 9 10 20 0 11 -4 20 -10 20 -5
0 -10 -9 -10 -20z"/>
<path d="M280 2976 c0 -17 27 -29 35 -16 4 6 3 15 0 20 -9 15 -35 12 -35 -4z"/>
<path d="M250 2945 c0 -8 5 -15 10 -15 6 0 10 7 10 15 0 8 -4 15 -10 15 -5 0
-10 -7 -10 -15z"/>
<path d="M302 2936 c-15 -8 -19 -15 -12 -22 8 -8 8 -19 0 -38 -5 -15 -10 -38
-10 -52 0 -13 -5 -24 -11 -24 -8 0 -10 12 -6 35 3 19 2 35 -4 35 -14 0 -11
-76 5 -89 16 -13 26 4 26 47 0 14 9 36 21 48 12 13 19 32 17 47 -3 23 -5 24
-26 13z"/>
<path d="M196 2802 c-13 -12 -5 -22 19 -22 14 0 25 4 25 9 0 10 -36 21 -44 13z"/>
<path d="M200 2736 c0 -17 42 -16 48 2 2 7 -6 12 -22 12 -15 0 -26 -6 -26 -14z"/>
<path d="M103 2653 c-20 -42 -15 -52 7 -15 22 36 24 42 13 42 -5 0 -14 -12
-20 -27z"/>
<path d="M210 2666 c0 -8 -3 -21 -6 -30 -4 -11 -1 -16 10 -16 11 0 16 9 16 30
0 17 -4 30 -10 30 -5 0 -10 -6 -10 -14z"/>
<path d="M33 2460 c0 -25 2 -35 4 -22 2 12 2 32 0 45 -2 12 -4 2 -4 -23z"/>
<path d="M56 2413 c-12 -12 -5 -23 14 -23 11 0 20 4 20 9 0 11 -26 22 -34 14z"/>
<path d="M2 2340 c0 -19 2 -27 5 -17 2 9 2 25 0 35 -3 9 -5 1 -5 -18z"/>
<path d="M40 2333 c0 -5 7 -18 15 -29 12 -16 14 -16 15 -3 0 9 -7 22 -15 29
-8 7 -15 8 -15 3z"/>
<path d="M12875 1909 c-11 -17 1 -21 15 -4 8 9 8 15 2 15 -6 0 -14 -5 -17 -11z"/>
<path d="M12936 1885 c-3 -9 -6 -24 -5 -33 0 -9 5 -4 10 12 9 32 6 48 -5 21z"/>
<path d="M12835 1880 c-3 -5 -1 -10 4 -10 6 0 11 5 11 10 0 6 -2 10 -4 10 -3
0 -8 -4 -11 -10z"/>
<path d="M12830 1846 c0 -9 5 -16 10 -16 6 0 10 4 10 9 0 6 -4 13 -10 16 -5 3
-10 -1 -10 -9z"/>
<path d="M12640 1600 c0 -11 5 -20 10 -20 6 0 10 9 10 20 0 11 -4 20 -10 20
-5 0 -10 -9 -10 -20z"/>
<path d="M12473 1493 c9 -2 25 -2 35 0 9 3 1 5 -18 5 -19 0 -27 -2 -17 -5z"/>
<path d="M12422 1380 c0 -14 2 -19 5 -12 2 6 2 18 0 25 -3 6 -5 1 -5 -13z"/>
<path d="M12368 1373 c7 -3 16 -2 19 1 4 3 -2 6 -13 5 -11 0 -14 -3 -6 -6z"/>
<path d="M12315 1330 c3 -5 8 -10 11 -10 2 0 4 5 4 10 0 6 -5 10 -11 10 -5 0
-7 -4 -4 -10z"/>
<path d="M12521 1284 c0 -11 3 -14 6 -6 3 7 2 16 -1 19 -3 4 -6 -2 -5 -13z"/>
<path d="M12197 1265 c-8 -18 11 -31 25 -17 11 11 3 32 -12 32 -4 0 -10 -7
-13 -15z"/>
<path d="M12255 1270 c-3 -5 -1 -10 4 -10 6 0 11 5 11 10 0 6 -2 10 -4 10 -3
0 -8 -4 -11 -10z"/>
<path d="M12242 1194 c3 -17 21 -21 26 -6 1 5 -4 12 -13 16 -11 4 -15 1 -13
-10z"/>
<path d="M12032 1063 c5 -25 28 -28 28 -4 0 12 -6 21 -16 21 -9 0 -14 -7 -12
-17z"/>
<path d="M12014 1026 c-8 -22 3 -33 18 -18 9 9 9 15 0 24 -9 9 -13 7 -18 -6z"/>
<path d="M12071 1014 c0 -11 3 -14 6 -6 3 7 2 16 -1 19 -3 4 -6 -2 -5 -13z"/>
<path d="M12188 1003 c7 -3 16 -2 19 1 4 3 -2 6 -13 5 -11 0 -14 -3 -6 -6z"/>
<path d="M12140 975 c0 -8 4 -15 9 -15 5 0 7 -8 4 -18 -3 -14 4 -22 27 -32 38
-16 54 -4 23 17 -13 9 -23 26 -23 39 0 17 -6 24 -20 24 -11 0 -20 -7 -20 -15z"/>
<path d="M11946 921 c-8 -12 3 -41 15 -41 12 0 12 37 0 45 -5 3 -12 1 -15 -4z"/>
<path d="M12260 912 c0 -5 7 -16 16 -23 14 -12 16 -11 13 5 -4 20 -29 35 -29
18z"/>
<path d="M12020 835 c0 -15 4 -24 10 -20 6 3 10 12 10 20 0 8 -4 17 -10 20 -6
4 -10 -5 -10 -20z"/>
<path d="M12077 854 c-11 -11 -8 -42 4 -49 16 -10 19 -2 11 29 -4 15 -11 24
-15 20z"/>
<path d="M11826 782 c-7 -11 4 -81 14 -87 4 -3 5 17 2 43 -5 52 -7 58 -16 44z"/>
<path d="M11896 728 c-3 -13 -1 -27 4 -32 7 -7 10 1 10 22 0 37 -5 41 -14 10z"/>
<path d="M11951 734 c0 -11 3 -14 6 -6 3 7 2 16 -1 19 -3 4 -6 -2 -5 -13z"/>
<path d="M12010 665 c-7 -9 -11 -18 -8 -20 3 -3 11 1 18 10 7 9 11 18 8 20 -3
3 -11 -1 -18 -10z"/>
<path d="M11987 605 c-3 -18 0 -33 6 -37 16 -10 20 12 9 42 -9 24 -9 24 -15
-5z"/>
<path d="M12020 620 c0 -5 5 -10 10 -10 6 0 10 5 10 10 0 6 -4 10 -10 10 -5 0
-10 -4 -10 -10z"/>
<path d="M11888 548 c-8 -20 9 -78 23 -78 5 0 9 6 9 14 0 9 12 16 32 18 30 3
54 27 26 25 -52 -2 -77 4 -80 21 -3 16 -4 16 -10 0z"/>
<path d="M12155 540 c3 -5 8 -10 11 -10 2 0 4 5 4 10 0 6 -5 10 -11 10 -5 0
-7 -4 -4 -10z"/>
<path d="M12010 473 c0 -28 3 -34 10 -23 13 20 13 47 0 55 -6 4 -10 -9 -10
-32z"/>
<path d="M11947 483 c-13 -12 -7 -32 12 -43 18 -9 20 -7 19 20 -1 28 -16 39
-31 23z"/>
<path d="M12070 460 c0 -5 5 -10 10 -10 6 0 10 5 10 10 0 6 -4 10 -10 10 -5 0
-10 -4 -10 -10z"/>
<path d="M11859 458 c-1 -2 -2 -18 -4 -35 -2 -24 2 -33 12 -33 10 0 14 7 10
20 -3 11 -1 20 4 20 5 0 9 7 9 15 0 12 -27 23 -31 13z"/>
<path d="M11903 424 c-6 -16 15 -37 29 -28 4 3 8 14 8 25 0 23 -28 26 -37 3z"/>
<path d="M12160 415 c0 -8 5 -15 10 -15 6 0 10 7 10 15 0 8 -4 15 -10 15 -5 0
-10 -7 -10 -15z"/>
<path d="M12131 394 c0 -11 3 -14 6 -6 3 7 2 16 -1 19 -3 4 -6 -2 -5 -13z"/>
<path d="M12326 393 c-6 -14 -5 -15 5 -6 7 7 10 15 7 18 -3 3 -9 -2 -12 -12z"/>
<path d="M11990 387 c0 -7 7 -21 15 -31 14 -19 15 -19 15 6 0 14 -7 28 -15 32
-8 3 -15 0 -15 -7z"/>
<path d="M11900 370 c0 -5 5 -10 10 -10 6 0 10 5 10 10 0 6 -4 10 -10 10 -5 0
-10 -4 -10 -10z"/>
<path d="M11950 366 c0 -8 11 -23 25 -34 31 -24 31 -30 3 -34 -19 -2 -24 -10
-26 -40 -2 -21 1 -38 6 -38 13 0 24 29 15 42 -3 7 -1 8 5 4 7 -4 12 -2 12 3 0
6 7 11 15 11 25 0 17 29 -20 66 -21 21 -35 29 -35 20z"/>
<path d="M12080 361 c0 -6 5 -13 10 -16 6 -3 10 1 10 9 0 9 -4 16 -10 16 -5 0
-10 -4 -10 -9z"/>
<path d="M11920 341 c0 -21 13 -41 26 -41 17 0 17 10 0 33 -14 19 -26 22 -26
8z"/>
<path d="M11890 310 c0 -5 5 -10 10 -10 6 0 10 5 10 10 0 6 -4 10 -10 10 -5 0
-10 -4 -10 -10z"/>
<path d="M11840 270 c0 -5 5 -10 10 -10 6 0 10 5 10 10 0 6 -4 10 -10 10 -5 0
-10 -4 -10 -10z"/>
<path d="M11903 254 c-17 -36 -5 -53 13 -19 8 15 14 31 14 36 0 18 -15 8 -27
-17z"/>
<path d="M11990 245 c0 -8 7 -15 15 -15 17 0 20 -25 5 -35 -6 -3 -13 1 -16 10
-6 13 -8 14 -15 3 -15 -23 -10 -38 14 -38 12 0 28 9 35 20 10 17 9 25 -4 45
-18 28 -34 33 -34 10z"/>
<path d="M12062 230 c0 -19 2 -27 5 -17 2 9 2 25 0 35 -3 9 -5 1 -5 -18z"/>
<path d="M12197 239 c4 -13 8 -18 11 -10 2 7 -1 18 -6 23 -8 8 -9 4 -5 -13z"/>
<path d="M12220 231 c0 -6 5 -13 10 -16 6 -3 10 1 10 9 0 9 -4 16 -10 16 -5 0
-10 -4 -10 -9z"/>
<path d="M12257 221 c-3 -14 -1 -18 9 -14 16 6 18 19 5 27 -5 3 -11 -3 -14
-13z"/>
<path d="M11914 198 c-4 -6 3 -19 16 -30 29 -23 33 -19 17 15 -13 29 -22 33
-33 15z"/>
<path d="M12380 190 c0 -5 5 -10 10 -10 6 0 10 5 10 10 0 6 -4 10 -10 10 -5 0
-10 -4 -10 -10z"/>
<path d="M12350 172 c0 -5 7 -15 15 -22 8 -7 15 -8 15 -2 0 5 -7 15 -15 22 -8
7 -15 8 -15 2z"/>
<path d="M12270 159 c0 -5 5 -7 10 -4 6 3 10 8 10 11 0 2 -4 4 -10 4 -5 0 -10
-5 -10 -11z"/>
<path d="M11940 135 c0 -12 40 -48 47 -42 3 4 -3 16 -15 27 -21 20 -32 25 -32
15z"/>
<path d="M12000 130 c0 -5 7 -10 15 -10 8 0 15 5 15 10 0 6 -7 10 -15 10 -8 0
-15 -4 -15 -10z"/>
<path d="M12081 124 c0 -11 3 -14 6 -6 3 7 2 16 -1 19 -3 4 -6 -2 -5 -13z"/>
<path d="M12170 105 c0 -8 5 -15 10 -15 6 0 10 7 10 15 0 8 -4 15 -10 15 -5 0
-10 -7 -10 -15z"/>
<path d="M12061 97 c-1 -15 -6 -17 -31 -12 -34 8 -40 -4 -10 -23 11 -7 20 -18
20 -26 0 -17 26 -40 33 -29 2 4 1 31 -3 58 -4 28 -8 42 -9 32z"/>
<path d="M11880 92 c0 -7 -7 -12 -15 -12 -8 0 -15 -7 -15 -15 0 -23 27 -18 33
7 4 12 4 24 2 27 -3 2 -5 -1 -5 -7z"/>
<path d="M12107 84 c-13 -13 -7 -24 14 -24 11 0 19 5 17 12 -5 14 -22 21 -31
12z"/>
<path d="M11887 33 c-14 -14 -6 -32 13 -30 11 1 20 4 20 8 0 11 -27 29 -33 22z"/>
<path d="M12160 10 c0 -5 5 -10 11 -10 5 0 7 5 4 10 -3 6 -8 10 -11 10 -2 0
-4 -4 -4 -10z"/>
<path d="M12200 10 c0 -5 5 -10 10 -10 6 0 10 5 10 10 0 6 -4 10 -10 10 -5 0
-10 -4 -10 -10z"/>
<path d="M12018 3 c7 -3 16 -2 19 1 4 3 -2 6 -13 5 -11 0 -14 -3 -6 -6z"/>
</g>
</svg>
